<svg width="41" height="52" viewBox="0 0 41 52" fill="none" xmlns="http://www.w3.org/2000/svg">
<g clip-path="url(#clip0_52_97)">
<path fill-rule="evenodd" clip-rule="evenodd" d="M20.5286 51.9929C25.7004 49.7416 29.2248 48.0007 31.6117 46.6499C35.2207 44.6393 38.2867 42.1783 39.9101 38.0658C40.8758 35.6651 41.359 32.783 41.3021 29.3314C41.2745 21.1975 41.246 13.0938 41.189 4.95903C29.9065 -1.64353 11.0937 -1.64353 -0.188852 4.95903C-0.217332 13.0938 -0.245814 21.1975 -0.301884 29.3314C-0.358844 32.783 0.124428 35.6651 1.09008 38.0658C2.73836 42.1483 5.80708 44.6393 9.38844 46.6499C11.8324 48.0007 15.3568 49.7416 20.5286 51.9929Z" fill="#EDF2EB"/>
<path fill-rule="evenodd" clip-rule="evenodd" d="M29.878 6.69993L28.543 3.93915C28.4898 3.82207 28.4122 3.71923 28.3161 3.63834C28.204 3.57064 28.0755 3.53956 27.9467 3.54905V3.27833H29.8219V3.54905H29.765C29.6302 3.5475 29.4961 3.56779 29.3671 3.60921C29.335 3.61672 29.3062 3.63566 29.2856 3.66285C29.2651 3.69005 29.2539 3.72386 29.2541 3.75867C29.2517 3.77559 29.253 3.79289 29.2579 3.8092C29.2628 3.8255 29.2713 3.84038 29.2826 3.85267C29.323 3.9169 29.353 3.98772 29.3716 4.06229L30.4521 6.22429L31.3848 4.23901C31.4157 4.18389 31.4348 4.12229 31.4408 4.05853C31.4615 4.01184 31.4713 3.96058 31.4693 3.90907C31.4696 3.85493 31.4567 3.80162 31.432 3.75423C31.4072 3.70684 31.3713 3.66694 31.3278 3.63834C31.1961 3.56807 31.0487 3.53719 30.9015 3.54905V3.27833H32.4928V3.54905C32.2089 3.57913 32.0096 3.75867 31.8387 4.11869C31.8228 4.13449 31.813 4.1559 31.8111 4.17884L30.6167 6.58055V8.08455C30.6167 8.35527 30.6452 8.53481 30.7306 8.62505C30.8161 8.71529 30.9585 8.74537 31.2139 8.74537H31.3581V9.01515H29.1678V8.74161H29.3111C29.538 8.74161 29.7089 8.71153 29.765 8.62129C29.854 8.52729 29.8789 8.35151 29.8789 8.05071V6.69993M27.435 3.27833L27.8871 4.66201L27.6601 4.75601C27.2899 4.24559 26.9775 3.91565 26.779 3.76525C26.5785 3.6202 26.3393 3.54674 26.0964 3.55563C26.0166 3.54897 25.9368 3.57009 25.8694 3.61579C25.8125 3.64493 25.8125 3.73517 25.8125 3.85549V8.08549C25.8125 8.38629 25.841 8.56583 25.9264 8.65607C26.0118 8.74631 26.1534 8.77639 26.4097 8.77639H26.5521V9.04617H24.3653V8.77639H24.5051C24.7329 8.77639 24.9029 8.74631 24.9883 8.65607C25.0738 8.56583 25.1023 8.38629 25.1023 8.08549V3.85549C25.1044 3.77159 25.0847 3.6887 25.0453 3.61579C24.9762 3.57445 24.8978 3.55366 24.8184 3.55563C24.5773 3.5607 24.3418 3.63301 24.1357 3.76525C23.9373 3.91565 23.624 4.24559 23.2546 4.75601L23.0277 4.66201L23.4825 3.28115L27.435 3.27833ZM22.6895 3.27833V3.57913H22.5471C22.2916 3.57913 22.1492 3.60921 22.0638 3.69851C21.9784 3.78781 21.9499 3.96923 21.9499 4.29917V8.05071C21.9499 8.38159 21.9784 8.56113 22.0638 8.65137C22.1492 8.74161 22.2916 8.80177 22.5471 8.80177H22.6895V9.07155H20.5001V8.79801H20.5891C20.8445 8.79801 21.0154 8.76793 21.1008 8.67769C21.1863 8.58745 21.2139 8.40697 21.2139 8.07703V4.29917C21.2139 3.96923 21.1854 3.75867 21.1008 3.69851C21.0118 3.60921 20.873 3.57913 20.6176 3.57913H20.5001V3.27833H22.6895ZM18.6845 3.66843L16.8377 9.04147H16.6384L14.7596 3.72859V7.72077C14.7596 8.08079 14.8165 8.32143 14.9305 8.50097C15.0435 8.65137 15.2144 8.74161 15.4698 8.77169V9.07155H13.68V8.77169C13.9354 8.74161 14.1339 8.65137 14.2478 8.50097C14.3617 8.35057 14.4187 8.08079 14.4187 7.74897V4.38941C14.4187 4.02939 14.3902 3.78875 14.3048 3.69851C14.2193 3.60827 14.0778 3.57913 13.85 3.57913H13.7085V3.27833H15.2713L16.8911 7.87117L18.4824 3.27833H20.1307V3.57913H19.9883C19.7614 3.57913 19.5905 3.60921 19.5051 3.69851C19.4196 3.78781 19.392 3.99931 19.392 4.32925V8.08079C19.392 8.38159 19.4205 8.56113 19.5051 8.65137C19.5896 8.74161 19.7329 8.77169 19.9598 8.77169H20.1022V9.04147H17.9422V8.77169H18.0561C18.2831 8.77169 18.454 8.74161 18.5394 8.65137C18.6248 8.56113 18.6524 8.38159 18.6524 8.08079V3.66843H18.6845ZM8.50732 9.07155V8.79801C8.66125 8.79898 8.81116 8.74609 8.93363 8.64761C9.06398 8.47976 9.16059 8.28561 9.21755 8.07703L10.6674 3.39489L11.2637 3.18433L12.8843 8.26033C12.9107 8.35507 12.9487 8.44576 12.9974 8.53011C13.0543 8.62411 13.0864 8.68051 13.1398 8.71059C13.1787 8.74827 13.2294 8.76965 13.2822 8.77075C13.3382 8.77075 13.4237 8.80083 13.5376 8.80083V9.07061H11.52V8.79801H11.5769C11.7336 8.8082 11.8902 8.77584 12.0317 8.70401C12.0752 8.67541 12.1111 8.63551 12.1359 8.58812C12.1607 8.54073 12.1735 8.48742 12.1732 8.43329C12.1745 8.39147 12.1646 8.35012 12.1448 8.31391C12.1388 8.24999 12.1194 8.18831 12.0878 8.13343L11.7469 7.05337H9.84321L9.58779 7.95389C9.56474 7.99972 9.55484 8.05166 9.5593 8.10335V8.28383C9.5593 8.46337 9.58778 8.58369 9.67233 8.67393C9.75688 8.76417 9.87169 8.79425 10.0702 8.79425H10.1592V9.06403L8.50732 9.07155ZM9.95713 6.69993H11.6339L10.8098 3.96923L9.95713 6.69993Z" fill="#1D2426"/>
<path fill-rule="evenodd" clip-rule="evenodd" d="M31.1283 11.9226L30.4163 10.5426C30.3856 10.4869 30.3472 10.4362 30.3024 10.3922C30.2395 10.3654 30.1714 10.3551 30.1039 10.3622V10.208H31.0999V10.3584H31.0714C30.9868 10.3584 30.9014 10.3584 30.8729 10.3885C30.8159 10.4186 30.8159 10.4186 30.8159 10.4825V10.5426C30.8159 10.5718 30.8444 10.6019 30.8729 10.6319L31.4407 11.7129L31.9525 10.7222C31.9638 10.7099 31.9722 10.695 31.9772 10.6787C31.9821 10.6624 31.9834 10.6451 31.981 10.6282V10.5389C31.981 10.4787 31.9525 10.4449 31.892 10.4186C31.8191 10.3919 31.7418 10.3816 31.665 10.3885V10.2381H32.5176V10.396C32.4457 10.4121 32.3779 10.4446 32.319 10.4912C32.2602 10.5378 32.2116 10.5974 32.1768 10.6658C32.1768 10.6959 32.1768 10.6959 32.1483 10.6959L31.5253 11.8962V12.6482C31.5157 12.7423 31.5358 12.8371 31.5822 12.918C31.6605 12.9627 31.7489 12.9835 31.8377 12.9782H31.9267V13.122H30.759V12.9716H30.848C30.9364 12.973 31.0239 12.9524 31.1034 12.9114C31.1499 12.8305 31.1699 12.7357 31.1604 12.6417V11.9207M29.8254 10.1798L30.0532 10.8707L29.9393 10.9309C29.8015 10.7378 29.6388 10.566 29.456 10.4204C29.3441 10.3491 29.2172 10.3078 29.0867 10.3001C29.0297 10.3001 28.9728 10.3001 28.9728 10.3302C28.9443 10.3603 28.9443 10.3904 28.9443 10.4505V12.5815C28.9284 12.6276 28.9252 12.6776 28.9353 12.7256C28.9454 12.7735 28.9683 12.8174 29.0012 12.8521C29.0341 12.8868 29.0758 12.9108 29.1212 12.9213C29.1666 12.9318 29.2139 12.9284 29.2576 12.9114H29.3466V13.0618H28.1442V12.9114H28.2332C28.2768 12.9281 28.324 12.9314 28.3692 12.9207C28.4145 12.9101 28.456 12.8861 28.4887 12.8514C28.5215 12.8168 28.5443 12.773 28.5544 12.7252C28.5644 12.6774 28.5614 12.6275 28.5456 12.5815V10.4524C28.5456 10.3922 28.5456 10.3584 28.518 10.3321C28.4904 10.3058 28.461 10.302 28.404 10.302C28.2714 10.2953 28.1407 10.3379 28.0347 10.4223C27.8588 10.576 27.697 10.7469 27.5514 10.9327L27.409 10.8726L27.6369 10.1817L29.8254 10.1798ZM27.296 10.1798V10.3302H27.2114C27.1221 10.32 27.032 10.3412 26.9551 10.3904C26.91 10.4827 26.8903 10.5866 26.8982 10.6902V12.558C26.8901 12.6616 26.9099 12.7655 26.9551 12.8579C27.0121 12.918 27.0975 12.918 27.2114 12.918H27.264V13.0684H26.0981V12.918H26.155C26.2444 12.9282 26.3344 12.907 26.4113 12.8579C26.4674 12.8278 26.4674 12.7084 26.4674 12.558V10.662C26.4752 10.5585 26.4558 10.4548 26.4113 10.3622C26.3328 10.3174 26.2441 10.2966 26.155 10.302H26.0981V10.1516H27.2915L27.296 10.1798ZM24.1418 13.1521L23.8535 12.37L23.9959 12.3098C24.1438 12.5034 24.3156 12.675 24.5067 12.8203C24.6563 12.9333 24.8346 12.9962 25.0185 13.0007C25.1638 13.0018 25.3047 12.9485 25.4163 12.8503C25.4692 12.8017 25.5117 12.7418 25.5412 12.6745C25.5706 12.6073 25.5863 12.5343 25.5872 12.4602C25.5883 12.3158 25.5374 12.1764 25.4448 12.0701C25.3558 11.9761 25.1324 11.8897 24.8476 11.8004C24.8316 11.803 24.8152 11.8017 24.7997 11.7964C24.7843 11.7912 24.7702 11.7823 24.7586 11.7703C24.5577 11.7365 24.3702 11.6425 24.2184 11.4996C24.1422 11.425 24.0837 11.3326 24.0475 11.2298C24.0153 11.1332 23.9964 11.0322 23.9914 10.9299C23.9897 10.8278 24.0091 10.7265 24.0483 10.6332C24.0875 10.5398 24.1456 10.4566 24.2184 10.3894C24.295 10.3159 24.3848 10.2594 24.4825 10.2232C24.5802 10.1871 24.6838 10.172 24.7871 10.1789C24.8836 10.1873 24.9789 10.2075 25.071 10.239C25.1849 10.2691 25.241 10.2992 25.2695 10.2992C25.3096 10.3037 25.35 10.293 25.3834 10.2691C25.4403 10.2691 25.4724 10.239 25.5258 10.2089L25.8097 10.9299L25.6958 10.9901C25.5665 10.7992 25.4135 10.6275 25.241 10.4797C25.1127 10.3683 24.9531 10.3048 24.7871 10.2992C24.6511 10.3035 24.5205 10.3565 24.4168 10.4496C24.3716 10.4965 24.3358 10.5525 24.3114 10.6144C24.2871 10.6762 24.2748 10.7426 24.2753 10.8096C24.2769 10.8835 24.2965 10.9557 24.3323 11.0192C24.3707 11.0865 24.4184 11.1473 24.4738 11.1997C24.6396 11.3054 24.8229 11.3769 25.014 11.4103C25.0586 11.4321 25.1074 11.4424 25.1564 11.4403C25.3675 11.4795 25.5586 11.5964 25.6958 11.7703C25.7917 11.8944 25.8523 12.0449 25.8704 12.204C25.8886 12.3631 25.8636 12.5244 25.7983 12.6691C25.733 12.8137 25.6302 12.9359 25.5017 13.0212C25.3733 13.1066 25.2245 13.1516 25.0728 13.1511C24.9385 13.1459 24.8052 13.1257 24.6749 13.091C24.6038 13.0544 24.5262 13.0339 24.4471 13.0308C24.4075 13.0295 24.3684 13.0399 24.3341 13.0609C24.2603 13.0709 24.191 13.1035 24.1347 13.1549M21.9774 11.5325H22.2906C22.481 11.5457 22.6703 11.4932 22.83 11.383C22.9439 11.2928 23.0009 11.1427 23.0009 10.9327C23.0058 10.8445 22.9931 10.7562 22.9637 10.6734C22.9342 10.5907 22.8887 10.5154 22.83 10.4524C22.6795 10.3453 22.5003 10.2926 22.3191 10.302C22.2116 10.2949 22.1041 10.3156 22.0058 10.3622C21.9489 10.3922 21.9213 10.5126 21.9213 10.6319V11.5325H21.9774ZM23.0578 13.0938L22.2906 11.6838H21.9774V12.6144C21.9678 12.7085 21.9878 12.8033 22.0343 12.8842C22.1128 12.9289 22.2016 12.9497 22.2906 12.9443H22.3476V13.0947H21.1817V12.9443H21.2387C21.328 12.9545 21.4181 12.9333 21.495 12.8842C21.5398 12.7917 21.5592 12.6878 21.551 12.5843V10.6921C21.5607 10.5981 21.541 10.5034 21.495 10.4223C21.4165 10.3776 21.3277 10.3567 21.2387 10.3622H21.1817V10.208H22.3476C22.7169 10.208 22.9706 10.2682 23.1717 10.4186C23.2641 10.4769 23.3395 10.561 23.3896 10.6617C23.4397 10.7624 23.4626 10.8757 23.4556 10.9891C23.459 11.0754 23.4427 11.1613 23.408 11.2395C23.3733 11.3177 23.3212 11.386 23.2563 11.4385C23.1148 11.5588 22.9439 11.6189 22.66 11.6791L23.1993 12.6097C23.2626 12.7197 23.3392 12.8205 23.4272 12.9096C23.4841 12.9697 23.5972 12.9697 23.7111 12.9697H23.7396V13.122H23.0578V13.0938ZM18.4823 13.0938V12.9434H18.542C18.631 12.9535 18.7208 12.9323 18.7974 12.8832C18.8427 12.7909 18.8624 12.687 18.8543 12.5834V10.6921C18.8622 10.5885 18.8425 10.4846 18.7974 10.3922C18.7192 10.3476 18.6307 10.3267 18.542 10.3321H18.485V10.1817H20.532L20.8159 10.8726L20.7029 10.9027C20.5724 10.7113 20.4084 10.5482 20.2196 10.4223C20.0535 10.3304 19.8665 10.2887 19.6794 10.302C19.563 10.296 19.4467 10.3165 19.3385 10.3622C19.2815 10.3922 19.2495 10.4825 19.2495 10.6319V11.4723H19.4489C19.5999 11.4871 19.751 11.4448 19.8752 11.3529C19.9597 11.2928 20.0167 11.1724 20.0452 10.9929H20.1876V12.103H20.0452C20.0304 11.957 19.9714 11.8198 19.877 11.712C19.788 11.618 19.6491 11.5917 19.4506 11.5917H19.254V12.5824C19.2506 12.6269 19.2569 12.6716 19.2723 12.7131C19.2877 12.7546 19.3119 12.7919 19.343 12.8221C19.4225 12.8631 19.51 12.8837 19.5984 12.8823C19.8243 12.8854 20.048 12.8343 20.2525 12.7328C20.4605 12.6239 20.6369 12.458 20.7634 12.2525L20.8773 12.2826L20.5934 13.0346H18.4823V13.0938ZM16.948 13.1831L16.1238 10.7823V10.7523C16.0348 10.4825 15.8675 10.3321 15.6975 10.3321V10.1817H16.7771V10.3321C16.6632 10.3321 16.5786 10.3622 16.5217 10.3622C16.4623 10.3922 16.4327 10.4236 16.4327 10.4562V10.5163C16.4327 10.5464 16.4611 10.6056 16.4611 10.6357L17.118 12.464L17.7151 10.693C17.7151 10.663 17.7436 10.6329 17.7436 10.599V10.5097C17.7438 10.4783 17.7356 10.4475 17.7198 10.4209C17.7041 10.3942 17.6814 10.3729 17.6546 10.3593C17.5751 10.3185 17.4876 10.2979 17.3992 10.2992V10.1488H18.2794V10.302C18.195 10.3008 18.1136 10.3346 18.0525 10.396C17.9925 10.4668 17.9443 10.5479 17.9101 10.6357L17.029 13.154H16.94L16.948 13.1831ZM15.5551 10.1817V10.3321H15.4661C15.377 10.322 15.2873 10.3431 15.2107 10.3922C15.1656 10.4846 15.1458 10.5885 15.1537 10.6921V12.558C15.1457 12.6616 15.1654 12.7655 15.2107 12.8579C15.2392 12.918 15.3531 12.918 15.4661 12.918H15.5231V13.0684H14.359V12.918H14.4159C14.505 12.9281 14.5948 12.9069 14.6713 12.8579C14.7283 12.8278 14.7283 12.7084 14.7283 12.558V10.662C14.7362 10.5584 14.7165 10.4545 14.6713 10.3622C14.5932 10.3174 14.5047 10.2966 14.4159 10.302H14.359V10.1516H15.5524L15.5551 10.1817ZM12.0841 10.1817L13.6763 12.433V10.8425C13.6763 10.662 13.6478 10.5126 13.5873 10.4524C13.5304 10.3584 13.4164 10.3321 13.2749 10.3321V10.1817H14.2975V10.3321C14.1551 10.3321 14.0421 10.3622 13.9852 10.4524C13.9189 10.57 13.8879 10.706 13.8962 10.8425V13.122H13.7538L12.0209 10.6601V12.37C12.0209 12.5505 12.0494 12.7009 12.1055 12.7601C12.1624 12.8541 12.2764 12.8804 12.4188 12.8804V13.0308H11.3953V12.8804C11.5377 12.8804 11.6507 12.8503 11.7076 12.7601C11.774 12.6426 11.805 12.5065 11.7966 12.37V10.5126C11.7469 10.4625 11.6894 10.4218 11.6267 10.3922C11.5468 10.3513 11.459 10.3307 11.3703 10.3321V10.1817H12.0841ZM10.3798 10.3622V10.208H11.3169V10.3584C11.2643 10.3565 11.2119 10.3663 11.163 10.387C11.1141 10.4077 11.0698 10.4389 11.033 10.4787C10.9667 10.5963 10.9357 10.7323 10.944 10.8688V12.0128C10.944 12.4029 10.855 12.7037 10.6886 12.8832C10.5222 13.0628 10.2623 13.154 9.92142 13.154C9.58055 13.154 9.32422 13.06 9.15423 12.8832C8.98424 12.7065 8.89792 12.4631 8.89792 12.103V10.662C8.91373 10.616 8.91678 10.5661 8.90671 10.5183C8.89665 10.4705 8.87389 10.4267 8.8411 10.3921C8.80831 10.3574 8.76685 10.3334 8.72158 10.3228C8.67632 10.3122 8.62912 10.3154 8.58553 10.3321H8.52856V10.208H9.6651V10.3584H9.58055C9.49148 10.353 9.40274 10.3738 9.32422 10.4186C9.27896 10.5109 9.25922 10.6148 9.26727 10.7184V12.2224C9.25381 12.4376 9.3145 12.6506 9.43814 12.8221C9.58609 12.9627 9.77943 13.0381 9.97838 13.0327C10.2338 13.0327 10.4047 12.9725 10.5462 12.8221C10.6601 12.6727 10.7171 12.432 10.7171 12.1322V10.9327C10.7254 10.7962 10.6944 10.6602 10.6281 10.5426C10.5996 10.3922 10.5142 10.3622 10.3726 10.3622" fill="#1D2426"/>
<path fill-rule="evenodd" clip-rule="evenodd" d="M20.5286 50.158C23.9996 48.6277 27.5765 47.0071 30.8731 45.176C34.1411 43.3449 36.9829 41.1237 38.4603 37.4323C39.4838 34.9103 39.7677 32.0893 39.7392 29.3878V29.3577L39.6502 15.8508C27.9993 13.3899 8.67825 15.1928 1.37046 26.1767L1.34287 29.3577V29.3878C1.28591 32.1194 1.59829 34.9103 2.6209 37.4323C4.09919 41.1237 6.94097 43.3449 10.209 45.176C13.4771 47.0372 17.0291 48.654 20.525 50.158" fill="#4A6269"/>
<path fill-rule="evenodd" clip-rule="evenodd" d="M20.9548 43.6485C20.9258 43.7218 20.9213 43.8033 20.942 43.8797C20.9627 43.9561 21.0074 44.0227 21.0688 44.0687C21.2103 44.189 21.4096 44.189 21.5796 44.189C23.4273 44.2491 24.9616 43.6485 26.1551 42.3879C26.326 42.2084 26.2975 41.9377 26.1266 41.9678C24.7631 42.9886 23.2279 43.5893 21.6081 43.4389C21.3811 43.4389 21.0403 43.3787 20.9548 43.6485ZM20.3576 43.4689C20.4284 43.4828 20.4914 43.5246 20.5338 43.586C20.5761 43.6474 20.5946 43.7235 20.5855 43.7989C20.5693 43.8699 20.5278 43.9315 20.4695 43.9707C20.4112 44.01 20.3408 44.0239 20.2731 44.0094C20.2023 43.9954 20.1393 43.9534 20.0969 43.8918C20.0546 43.8303 20.0361 43.754 20.0453 43.6786C20.0527 43.6431 20.0667 43.6096 20.0865 43.5799C20.1062 43.5502 20.1313 43.5249 20.1603 43.5054C20.1893 43.4859 20.2217 43.4727 20.2556 43.4664C20.2894 43.4602 20.3241 43.461 20.3576 43.4689ZM19.7044 43.3486C19.7368 43.3562 19.7658 43.3752 19.7865 43.4026C19.8073 43.4299 19.8185 43.464 19.8183 43.499C19.8183 43.5592 19.7293 43.6184 19.6474 43.593C19.615 43.5855 19.586 43.5665 19.5653 43.5391C19.5446 43.5117 19.5333 43.4777 19.5335 43.4426C19.5447 43.4065 19.5689 43.3765 19.6008 43.3589C19.6328 43.3413 19.6699 43.3377 19.7044 43.3486ZM17.4589 40.1667C19.5335 44.612 28.2582 42.8984 27.264 36.7752C27.976 37.0158 28.3436 37.7359 28.4291 38.7567C28.5421 39.9571 28.2297 41.0672 28.0882 42.2686C27.8603 44.1288 27.8888 45.8697 28.1772 48.0026C27.6094 48.3927 26.8983 48.7235 26.188 48.9933C25.9896 48.1229 25.7332 47.1923 25.5348 46.3519C25.3585 46.4161 25.1779 46.4663 24.9945 46.5023C25.1939 47.4028 25.4209 48.3034 25.6487 49.1738C25.491 49.2277 25.3294 49.2676 25.1654 49.2932C24.8521 48.4829 24.5424 47.6726 24.2274 46.8924C23.9708 46.8873 23.7147 46.8673 23.4602 46.8323C23.8295 47.6726 24.1989 48.5731 24.5682 49.4436C24.3128 49.4737 24.085 49.5376 23.8562 49.5376C23.4299 48.6671 22.9751 47.7666 22.5488 46.8962C22.3206 46.8911 22.0929 46.871 21.8671 46.836C22.3504 47.7365 22.8612 48.6972 23.316 49.5977H23.3445C23.0212 49.6095 22.6976 49.5894 22.3779 49.5376L19.1099 44.675C20.986 46.4158 24.9073 46.4459 26.6695 44.4653C27.1813 44.0151 26.8404 43.0553 25.9575 43.8073C25.1737 44.4498 24.2425 44.8611 23.259 44.9993C21.7247 45.27 20.1334 44.9692 18.8829 44.0094C17.8033 43.1634 17.0638 41.9414 17.4589 40.1667Z" fill="#EDF2EB"/>
<path fill-rule="evenodd" clip-rule="evenodd" d="M26.5814 28.7918C24.5922 29.7515 24.0235 32.783 24.1374 34.9441C24.1944 35.7553 24.2798 36.5957 23.9389 37.3759C23.0009 39.6319 19.7328 38.2463 20.443 35.1246C21.155 31.9728 22.6315 29.1217 22.66 25.3993C22.66 22.3378 21.495 19.6071 19.1356 17.1452C19.8752 19.8468 18.6523 21.2577 17.2604 22.8792C16.4932 23.7797 15.726 24.6201 15.3843 25.7932C14.8734 27.3846 15.0434 29.1556 16.1523 30.716C16.0384 29.7252 16.0099 28.7956 16.1523 27.9552C16.6347 25.5234 19.6474 24.3832 20.3861 22.2522C21.1817 23.603 20.9263 25.5535 20.2446 27.3846C18.9656 30.2046 16.3793 34.0473 17.061 37.3195C17.4589 39.3001 18.396 40.711 20.1591 41.4611C22.3191 42.3917 24.99 41.4611 26.042 39.1807C26.5529 38.0696 26.5814 36.8091 26.2405 35.4583C25.0755 31.3166 25.7857 29.9959 26.5814 28.7956" fill="white"/>
</g>
<defs>
<clipPath id="clip0_52_97">
<rect width="41" height="52" fill="white"/>
</clipPath>
</defs>
</svg>
