<svg width="104" height="13" viewBox="0 0 104 13" fill="none" xmlns="http://www.w3.org/2000/svg">
<path d="M0.72 12V11.58C1.44 11.58 1.86 11.4467 1.98 11.18V1.12C1.86 0.853333 1.44 0.72 0.72 0.72V0.299999H5.5C7.16667 0.299999 8.42 0.573333 9.26 1.12C10.1133 1.66667 10.54 2.31333 10.54 3.06C10.54 4.47333 9.78 5.41333 8.26 5.88C9.24667 6.12 10.02 6.49333 10.58 7C11.14 7.50667 11.42 8.03333 11.42 8.58C11.42 9.59333 11.0133 10.42 10.2 11.06C9.4 11.6867 8.20667 12 6.62 12H0.72ZM4.52 0.98V5.62H5.44C6.4 5.62 7.04 5.41333 7.36 5C7.68 4.58667 7.84 3.94667 7.84 3.08C7.84 1.68 6.82667 0.98 4.8 0.98H4.52ZM4.52 6.2V11.32H5.92C7.78667 11.32 8.72 10.4133 8.72 8.6C8.72 7.97333 8.48667 7.42 8.02 6.94C7.55333 6.44667 6.77333 6.2 5.68 6.2H4.52ZM18.0983 12V11.58C18.7116 11.58 19.0983 11.5 19.2583 11.34L18.1383 8.28H14.2983L13.2583 11.22C13.3916 11.46 13.8049 11.58 14.4983 11.58V12H11.2183V11.58C11.9516 11.58 12.3716 11.44 12.4783 11.16L16.3583 0.299999H17.9783L21.8983 11.16C21.9916 11.44 22.4183 11.58 23.1783 11.58V12H18.0983ZM16.1983 2.96L14.5383 7.62H17.8983L16.1983 2.96ZM23.3464 12V11.58C24.0664 11.58 24.4864 11.4467 24.6064 11.18V1.12C24.4864 0.853333 24.0664 0.72 23.3464 0.72V0.299999H28.3664V0.72C27.6464 0.72 27.2264 0.853333 27.1064 1.12V11.18C27.2264 11.4467 27.6464 11.58 28.3664 11.58V12H23.3464ZM31.0264 12V11.58C31.3464 11.58 31.5931 11.56 31.7664 11.52L27.2064 5.72L32.1064 0.859999C31.9197 0.766666 31.5797 0.72 31.0864 0.72V0.299999H34.2264V0.72C34.1064 0.72 33.9997 0.726666 33.9064 0.74C33.8131 0.74 33.7264 0.753333 33.6464 0.779999C33.5664 0.806666 33.4997 0.826666 33.4464 0.839999C33.3931 0.853333 33.3397 0.879999 33.2864 0.92C33.2331 0.96 33.1931 0.986667 33.1664 1C33.1531 1.01333 33.1197 1.04667 33.0664 1.1L32.9864 1.18L29.3464 4.76L34.3664 11.26C34.5397 11.4733 34.9597 11.58 35.6264 11.58V12H31.0264ZM39.8255 12.2C39.1721 12.2 38.5055 12.1 37.8255 11.9C37.1455 11.7 36.7921 11.6 36.7655 11.6C36.6855 11.6 36.5921 11.64 36.4855 11.72C36.3788 11.8 36.3255 11.8933 36.3255 12H35.8655V8.84H36.3055C36.4521 9.62667 36.8921 10.2733 37.6255 10.78C38.3588 11.2733 39.0521 11.52 39.7055 11.52C40.3721 11.52 40.9055 11.3467 41.3055 11C41.7188 10.64 41.9255 10.1733 41.9255 9.6C41.9255 9.4 41.8588 9.20667 41.7255 9.02C41.6055 8.82 41.4055 8.62 41.1255 8.42C40.8588 8.20667 40.6188 8.03333 40.4055 7.9C40.1921 7.75333 39.8788 7.56 39.4655 7.32C39.0655 7.08 38.7788 6.90667 38.6055 6.8C36.7921 5.68 35.8855 4.48 35.8855 3.2C35.8855 2.41333 36.2455 1.7 36.9655 1.06C37.6855 0.419999 38.4921 0.0999994 39.3855 0.0999994C39.7855 0.0999994 40.2721 0.199999 40.8455 0.399999C41.4188 0.6 41.7388 0.7 41.8055 0.7C41.9655 0.7 42.0455 0.566666 42.0455 0.299999H42.5055L42.7055 3.32H42.2655C42.1855 2.77333 41.8255 2.21333 41.1855 1.64C40.5455 1.06667 39.9521 0.779999 39.4055 0.779999C38.8055 0.779999 38.3521 0.973333 38.0455 1.36C37.7388 1.73333 37.5855 2.13333 37.5855 2.56C37.5855 2.73333 37.6455 2.90667 37.7655 3.08C37.8855 3.24 38.0788 3.42 38.3455 3.62C38.6121 3.82 38.8455 3.98667 39.0455 4.12C39.2455 4.24 39.5521 4.42 39.9655 4.66C40.3788 4.9 40.6655 5.06667 40.8255 5.16C41.7455 5.72 42.4655 6.3 42.9855 6.9C43.5055 7.5 43.7655 8.21333 43.7655 9.04C43.7655 10.0267 43.3655 10.8 42.5655 11.36C41.7655 11.92 40.8521 12.2 39.8255 12.2ZM47.52 6C47.52 6.90667 47.6133 7.75333 47.8 8.54C48 9.32667 48.36 10.02 48.88 10.62C49.4 11.22 50.0533 11.52 50.84 11.52C51.44 11.52 51.9533 11.3667 52.38 11.06C52.8067 10.74 53.1333 10.3133 53.36 9.78C53.5867 9.24667 53.7467 8.7 53.84 8.14C53.9467 7.56667 54 6.96 54 6.32C54 5.42667 53.9 4.58 53.7 3.78C53.5 2.98 53.14 2.28 52.62 1.68C52.1 1.08 51.4533 0.779999 50.68 0.779999C50.08 0.779999 49.5667 0.939999 49.14 1.26C48.7133 1.58 48.3867 2.00667 48.16 2.54C47.9333 3.07333 47.7667 3.62667 47.66 4.2C47.5667 4.76 47.52 5.36 47.52 6ZM46.54 10.42C45.3933 9.22 44.82 7.8 44.82 6.16C44.82 4.52 45.4 3.1 46.56 1.9C47.72 0.7 49.12 0.0999994 50.76 0.0999994C52.4 0.0999994 53.8 0.7 54.96 1.9C56.12 3.1 56.7 4.52 56.7 6.16C56.7 7.8 56.1133 9.22 54.94 10.42C53.78 11.6067 52.3867 12.2 50.76 12.2C49.1067 12.2 47.7 11.6067 46.54 10.42ZM57.745 12V11.58C58.465 11.58 58.885 11.4467 59.005 11.18V1.12C58.885 0.853333 58.465 0.72 57.745 0.72V0.299999H61.125L67.045 8.4V1.12C66.925 0.853333 66.505 0.72 65.785 0.72V0.299999H68.985V0.72C68.265 0.72 67.845 0.853333 67.725 1.12V12H66.845L59.685 2.1V11.18C59.805 11.4467 60.225 11.58 60.945 11.58V12H57.745ZM74.5706 12V11.58C75.2906 11.58 75.7106 11.4467 75.8306 11.18V1.12C75.7106 0.853333 75.2906 0.72 74.5706 0.72V0.299999H79.6306V0.72C78.9106 0.72 78.4906 0.853333 78.3706 1.12V11.18C78.4906 11.4467 78.9106 11.58 79.6306 11.58V12H74.5706ZM80.8545 12V11.58C81.5745 11.58 81.9945 11.4467 82.1145 11.18V1.12C81.9945 0.853333 81.5745 0.72 80.8545 0.72V0.299999H84.2345L90.1545 8.4V1.12C90.0345 0.853333 89.6145 0.72 88.8945 0.72V0.299999H92.0945V0.72C91.3745 0.72 90.9545 0.853333 90.8345 1.12V12H89.9545L82.7945 2.1V11.18C82.9145 11.4467 83.3345 11.58 84.0545 11.58V12H80.8545ZM93.0955 12.02V11.6C93.8155 11.6 94.2355 11.4667 94.3555 11.2V1.14C94.2355 0.873333 93.8155 0.74 93.0955 0.74V0.319999H97.6955C99.4955 0.319999 100.975 0.866666 102.135 1.96C103.309 3.04 103.895 4.43333 103.895 6.14C103.895 7.86 103.322 9.27333 102.175 10.38C101.042 11.4733 99.6288 12.02 97.9355 12.02H93.0955ZM96.8955 0.9V11.34H97.9355C98.8421 11.34 99.6088 10.9133 100.235 10.06C100.875 9.20667 101.195 7.90667 101.195 6.16C101.195 4.4 100.862 3.08667 100.195 2.22C99.5288 1.34 98.6955 0.9 97.6955 0.9H96.8955Z" fill="#D31414"/>
</svg>
