<svg width="61" height="59" viewBox="0 0 61 59" fill="none" xmlns="http://www.w3.org/2000/svg">
<path d="M2.13532 56V48H5.06501C5.63272 48 6.10277 48.0937 6.47516 48.2812C6.84756 48.4661 7.12621 48.7174 7.3111 49.0352C7.496 49.3503 7.58845 49.7057 7.58845 50.1016C7.58845 50.4349 7.52725 50.7161 7.40485 50.9453C7.28246 51.1719 7.11839 51.3542 6.91266 51.4922C6.70954 51.6276 6.48558 51.7266 6.24079 51.7891V51.8672C6.50641 51.8802 6.76553 51.9661 7.01813 52.125C7.27334 52.2812 7.48428 52.5039 7.65095 52.793C7.81761 53.082 7.90095 53.4336 7.90095 53.8477C7.90095 54.2565 7.80459 54.6237 7.61188 54.9492C7.42178 55.2721 7.12751 55.5286 6.72907 55.7187C6.33063 55.9062 5.82152 56 5.20173 56H2.13532ZM3.34235 54.9648H5.08454C5.66266 54.9648 6.07673 54.8529 6.32673 54.6289C6.57673 54.4049 6.70173 54.125 6.70173 53.7891C6.70173 53.5365 6.63793 53.3047 6.51032 53.0937C6.38272 52.8828 6.20042 52.7148 5.96345 52.5898C5.72907 52.4648 5.45042 52.4023 5.12751 52.4023H3.34235V54.9648ZM3.34235 51.4609H4.95954C5.23037 51.4609 5.47386 51.4089 5.69001 51.3047C5.90876 51.2005 6.08194 51.0547 6.20954 50.8672C6.33975 50.6771 6.40485 50.4531 6.40485 50.1953C6.40485 49.8646 6.28897 49.5872 6.0572 49.3633C5.82543 49.1393 5.46996 49.0273 4.99079 49.0273H3.34235V51.4609ZM11.7038 56.1211C11.1126 56.1211 10.6035 55.9948 10.1764 55.7422C9.75195 55.487 9.42383 55.1289 9.19205 54.668C8.96289 54.2044 8.8483 53.6615 8.8483 53.0391C8.8483 52.4245 8.96289 51.8828 9.19205 51.4141C9.42383 50.9453 9.74674 50.5794 10.1608 50.3164C10.5775 50.0534 11.0645 49.9219 11.6217 49.9219C11.9603 49.9219 12.2884 49.9779 12.6061 50.0898C12.9238 50.2018 13.209 50.3776 13.4616 50.6172C13.7142 50.8568 13.9134 51.168 14.0592 51.5508C14.2051 51.931 14.278 52.3932 14.278 52.9375V53.3516H9.50846V52.4766H13.1335C13.1335 52.1693 13.071 51.8971 12.946 51.6602C12.821 51.4206 12.6452 51.2318 12.4186 51.0937C12.1947 50.9557 11.9316 50.8867 11.6296 50.8867C11.3014 50.8867 11.015 50.9674 10.7702 51.1289C10.528 51.2878 10.3405 51.4961 10.2077 51.7539C10.0775 52.0091 10.0124 52.2865 10.0124 52.5859V53.2695C10.0124 53.6706 10.0827 54.0117 10.2233 54.293C10.3665 54.5742 10.5658 54.7891 10.821 54.9375C11.0762 55.0833 11.3743 55.1562 11.7155 55.1562C11.9368 55.1562 12.1387 55.125 12.321 55.0625C12.5033 54.9974 12.6608 54.901 12.7936 54.7734C12.9264 54.6458 13.028 54.4883 13.0983 54.3008L14.2038 54.5C14.1152 54.8255 13.9564 55.1107 13.7272 55.3555C13.5006 55.5977 13.2155 55.7865 12.8717 55.9219C12.5306 56.0547 12.1413 56.1211 11.7038 56.1211ZM17.199 56.1328C16.8188 56.1328 16.475 56.0625 16.1677 55.9219C15.8604 55.7786 15.617 55.5716 15.4373 55.3008C15.2602 55.0299 15.1716 54.6979 15.1716 54.3047C15.1716 53.9661 15.2367 53.6875 15.367 53.4687C15.4972 53.25 15.6729 53.0768 15.8943 52.9492C16.1157 52.8216 16.363 52.7253 16.6365 52.6602C16.9099 52.5951 17.1886 52.5456 17.4724 52.5117C17.8318 52.4701 18.1235 52.4362 18.3474 52.4102C18.5714 52.3815 18.7341 52.3359 18.8357 52.2734C18.9373 52.2109 18.988 52.1094 18.988 51.9687V51.9414C18.988 51.6003 18.8917 51.3359 18.699 51.1484C18.5089 50.9609 18.225 50.8672 17.8474 50.8672C17.4542 50.8672 17.1443 50.9544 16.9177 51.1289C16.6938 51.3008 16.5388 51.4922 16.4529 51.7031L15.3552 51.4531C15.4854 51.0885 15.6755 50.7943 15.9255 50.5703C16.1782 50.3437 16.4685 50.1797 16.7966 50.0781C17.1248 49.974 17.4698 49.9219 17.8318 49.9219C18.0714 49.9219 18.3253 49.9505 18.5935 50.0078C18.8643 50.0625 19.117 50.1641 19.3513 50.3125C19.5883 50.4609 19.7823 50.6732 19.9334 50.9492C20.0844 51.2227 20.1599 51.5781 20.1599 52.0156V56H19.0193V55.1797H18.9724C18.8969 55.3307 18.7836 55.4792 18.6326 55.625C18.4815 55.7708 18.2875 55.8919 18.0505 55.9883C17.8136 56.0846 17.5297 56.1328 17.199 56.1328ZM17.4529 55.1953C17.7758 55.1953 18.0518 55.1315 18.281 55.0039C18.5128 54.8763 18.6886 54.7096 18.8084 54.5039C18.9308 54.2956 18.992 54.0729 18.992 53.8359V53.0625C18.9503 53.1042 18.8696 53.1432 18.7498 53.1797C18.6326 53.2135 18.4985 53.2435 18.3474 53.2695C18.1964 53.293 18.0492 53.3151 17.906 53.3359C17.7628 53.3542 17.643 53.3698 17.5466 53.3828C17.3201 53.4115 17.113 53.4596 16.9255 53.5273C16.7407 53.5951 16.5922 53.6927 16.4802 53.8203C16.3709 53.9453 16.3162 54.112 16.3162 54.3203C16.3162 54.6094 16.4229 54.8281 16.6365 54.9766C16.85 55.1224 17.1222 55.1953 17.4529 55.1953ZM24.3954 50V50.9375H21.118V50H24.3954ZM21.9969 48.5625H23.1649V54.2383C23.1649 54.4648 23.1988 54.6354 23.2665 54.75C23.3342 54.862 23.4214 54.9388 23.5282 54.9805C23.6376 55.0195 23.756 55.0391 23.8836 55.0391C23.9774 55.0391 24.0594 55.0326 24.1297 55.0195C24.2001 55.0065 24.2547 54.9961 24.2938 54.9883L24.5047 55.9531C24.437 55.9792 24.3407 56.0052 24.2157 56.0313C24.0907 56.0599 23.9344 56.0755 23.7469 56.0781C23.4396 56.0833 23.1532 56.0286 22.8876 55.9141C22.6219 55.7995 22.4071 55.6224 22.243 55.3828C22.079 55.1432 21.9969 54.8424 21.9969 54.4805V48.5625ZM25.789 56V48H26.957V50.9727H27.0273C27.095 50.8477 27.1927 50.7031 27.3203 50.5391C27.4479 50.375 27.625 50.2318 27.8515 50.1094C28.0781 49.9844 28.3776 49.9219 28.75 49.9219C29.2343 49.9219 29.6666 50.0443 30.0468 50.2891C30.427 50.5339 30.7252 50.8867 30.9414 51.3477C31.1601 51.8086 31.2695 52.3633 31.2695 53.0117C31.2695 53.6602 31.1614 54.2161 30.9453 54.6797C30.7291 55.1406 30.4322 55.4961 30.0546 55.7461C29.677 55.9935 29.246 56.1172 28.7617 56.1172C28.3971 56.1172 28.0989 56.056 27.8671 55.9336C27.638 55.8112 27.4583 55.668 27.3281 55.5039C27.1979 55.3398 27.0976 55.194 27.0273 55.0664H26.9296V56H25.789ZM26.9335 53C26.9335 53.4219 26.9947 53.7917 27.1171 54.1094C27.2395 54.4271 27.4166 54.6758 27.6484 54.8555C27.8802 55.0326 28.164 55.1211 28.5 55.1211C28.8489 55.1211 29.1406 55.0286 29.375 54.8437C29.6093 54.6562 29.7864 54.4023 29.9062 54.082C30.0286 53.7617 30.0898 53.401 30.0898 53C30.0898 52.6042 30.0299 52.2487 29.9101 51.9336C29.7929 51.6185 29.6158 51.3698 29.3789 51.1875C29.1445 51.0052 28.8515 50.9141 28.5 50.9141C28.1614 50.9141 27.875 51.0013 27.6406 51.1758C27.4088 51.3503 27.233 51.5937 27.1132 51.9062C26.9934 52.2187 26.9335 52.5833 26.9335 53ZM34.9874 56.1211C34.4249 56.1211 33.934 55.9922 33.5147 55.7344C33.0954 55.4766 32.7699 55.1159 32.5381 54.6523C32.3064 54.1888 32.1905 53.6471 32.1905 53.0273C32.1905 52.4049 32.3064 51.8607 32.5381 51.3945C32.7699 50.9284 33.0954 50.5664 33.5147 50.3086C33.934 50.0508 34.4249 49.9219 34.9874 49.9219C35.5499 49.9219 36.0407 50.0508 36.46 50.3086C36.8793 50.5664 37.2048 50.9284 37.4366 51.3945C37.6683 51.8607 37.7842 52.4049 37.7842 53.0273C37.7842 53.6471 37.6683 54.1888 37.4366 54.6523C37.2048 55.1159 36.8793 55.4766 36.46 55.7344C36.0407 55.9922 35.5499 56.1211 34.9874 56.1211ZM34.9913 55.1406C35.3558 55.1406 35.6579 55.0443 35.8975 54.8516C36.1371 54.6589 36.3142 54.4023 36.4288 54.082C36.5459 53.7617 36.6045 53.4089 36.6045 53.0234C36.6045 52.6406 36.5459 52.2891 36.4288 51.9687C36.3142 51.6458 36.1371 51.3867 35.8975 51.1914C35.6579 50.9961 35.3558 50.8984 34.9913 50.8984C34.6241 50.8984 34.3194 50.9961 34.0772 51.1914C33.8376 51.3867 33.6592 51.6458 33.542 51.9687C33.4275 52.2891 33.3702 52.6406 33.3702 53.0234C33.3702 53.4089 33.4275 53.7617 33.542 54.082C33.6592 54.4023 33.8376 54.6589 34.0772 54.8516C34.3194 55.0443 34.6241 55.1406 34.9913 55.1406ZM39.6525 50L40.9767 52.3359L42.3126 50H43.59L41.7189 53L43.6056 56H42.3283L40.9767 53.7578L39.629 56H38.3478L40.215 53L38.3712 50H39.6525ZM44.6682 56V50H45.8362V56H44.6682ZM45.258 49.0742C45.0549 49.0742 44.8804 49.0065 44.7346 48.8711C44.5914 48.7331 44.5198 48.569 44.5198 48.3789C44.5198 48.1862 44.5914 48.0221 44.7346 47.8867C44.8804 47.7487 45.0549 47.6797 45.258 47.6797C45.4612 47.6797 45.6344 47.7487 45.7776 47.8867C45.9234 48.0221 45.9963 48.1862 45.9963 48.3789C45.9963 48.569 45.9234 48.7331 45.7776 48.8711C45.6344 49.0065 45.4612 49.0742 45.258 49.0742ZM48.4544 52.4375V56H47.2865V50H48.4076V50.9766H48.4818C48.6198 50.6589 48.8359 50.4036 49.1302 50.2109C49.4271 50.0182 49.8008 49.9219 50.2513 49.9219C50.6602 49.9219 51.0182 50.0078 51.3255 50.1797C51.6328 50.349 51.8711 50.6016 52.0404 50.9375C52.2096 51.2734 52.2943 51.6888 52.2943 52.1836V56H51.1263V52.3242C51.1263 51.8893 51.013 51.5495 50.7865 51.3047C50.5599 51.0573 50.2487 50.9336 49.8529 50.9336C49.582 50.9336 49.3411 50.9922 49.1302 51.1094C48.9219 51.2266 48.7565 51.3984 48.6341 51.625C48.5143 51.849 48.4544 52.1198 48.4544 52.4375ZM56.2553 58.375C55.7787 58.375 55.3686 58.3125 55.0248 58.1875C54.6837 58.0625 54.405 57.8971 54.1889 57.6914C53.9728 57.4857 53.8113 57.2604 53.7045 57.0156L54.7084 56.6016C54.7787 56.7161 54.8725 56.8372 54.9897 56.9648C55.1095 57.0951 55.2709 57.2057 55.4741 57.2969C55.6798 57.388 55.9441 57.4336 56.267 57.4336C56.7097 57.4336 57.0756 57.3255 57.3647 57.1094C57.6537 56.8958 57.7983 56.5547 57.7983 56.0859V54.9062H57.7241C57.6537 55.0339 57.5522 55.1758 57.4194 55.332C57.2892 55.4883 57.1095 55.6237 56.8803 55.7383C56.6511 55.8529 56.353 55.9102 55.9858 55.9102C55.5118 55.9102 55.0847 55.7995 54.7045 55.5781C54.3269 55.3542 54.0274 55.0247 53.8061 54.5898C53.5873 54.1523 53.478 53.6146 53.478 52.9766C53.478 52.3385 53.586 51.7917 53.8022 51.3359C54.0209 50.8802 54.3204 50.5312 54.7006 50.2891C55.0808 50.0443 55.5118 49.9219 55.9936 49.9219C56.366 49.9219 56.6668 49.9844 56.8959 50.1094C57.1251 50.2318 57.3035 50.375 57.4311 50.5391C57.5613 50.7031 57.6616 50.8477 57.7319 50.9727H57.8178V50H58.9623V56.1328C58.9623 56.6484 58.8425 57.0716 58.603 57.4023C58.3634 57.7331 58.0392 57.9779 57.6303 58.1367C57.2241 58.2956 56.7657 58.375 56.2553 58.375ZM56.2436 54.9414C56.5795 54.9414 56.8634 54.8633 57.0951 54.707C57.3295 54.5482 57.5066 54.3216 57.6264 54.0273C57.7488 53.7305 57.81 53.375 57.81 52.9609C57.81 52.5573 57.7501 52.2018 57.6303 51.8945C57.5105 51.5872 57.3347 51.3477 57.103 51.1758C56.8712 51.0013 56.5847 50.9141 56.2436 50.9141C55.892 50.9141 55.5991 51.0052 55.3647 51.1875C55.1303 51.3672 54.9532 51.612 54.8334 51.9219C54.7162 52.2318 54.6576 52.5781 54.6576 52.9609C54.6576 53.3542 54.7175 53.6992 54.8373 53.9961C54.9571 54.293 55.1342 54.5247 55.3686 54.6914C55.6056 54.8581 55.8972 54.9414 56.2436 54.9414Z" fill="#EDF2EB"/>
<path d="M19.0001 11.6666C18.5834 11.1944 18.257 10.6805 18.0209 10.1249C17.7848 9.56936 17.6667 8.97214 17.6667 8.33325C17.6667 6.94436 18.1529 5.76381 19.1251 4.79159C20.0973 3.81936 21.2779 3.33325 22.6667 3.33325C24.0556 3.33325 25.2362 3.81936 26.2084 4.79159C27.1806 5.76381 27.6667 6.94436 27.6667 8.33325C27.6667 8.97214 27.5487 9.56936 27.3126 10.1249C27.0765 10.6805 26.7501 11.1944 26.3334 11.6666H19.0001ZM27.6667 36.6666C25.8334 36.6666 24.264 36.0138 22.9584 34.7083C21.6529 33.4027 21.0001 31.8333 21.0001 29.9999H19.3334L17.6667 13.3333H27.6667L26.0001 29.9999H24.3334C24.3334 30.9166 24.6598 31.7013 25.3126 32.3541C25.9654 33.0069 26.7501 33.3333 27.6667 33.3333C28.5834 33.3333 29.3681 33.0069 30.0209 32.3541C30.6737 31.7013 31.0001 30.9166 31.0001 29.9999V9.99992C31.0001 8.16658 31.6529 6.59714 32.9584 5.29159C34.264 3.98603 35.8334 3.33325 37.6667 3.33325C39.5001 3.33325 41.0695 3.98603 42.3751 5.29159C43.6806 6.59714 44.3334 8.16658 44.3334 9.99992V36.6666H41.0001V9.99992C41.0001 9.08325 40.6737 8.29853 40.0209 7.64575C39.3681 6.99297 38.5834 6.66659 37.6667 6.66659C36.7501 6.66659 35.9654 6.99297 35.3126 7.64575C34.6598 8.29853 34.3334 9.08325 34.3334 9.99992V29.9999C34.3334 31.8333 33.6806 33.4027 32.3751 34.7083C31.0695 36.0138 29.5001 36.6666 27.6667 36.6666ZM22.3334 26.6666H23.0001L24.0001 16.6666H21.3334L22.3334 26.6666ZM23.0001 16.6666H21.3334H24.0001H23.0001Z" fill="#E8EAED"/>
</svg>
