<svg width="40" height="57" viewBox="0 0 40 57" fill="none" xmlns="http://www.w3.org/2000/svg">
<path d="M10.7869 50.6016H9.56817C9.5213 50.3411 9.43406 50.112 9.30645 49.9141C9.17885 49.7161 9.0226 49.5482 8.8377 49.4102C8.65281 49.2721 8.44578 49.168 8.21661 49.0977C7.99005 49.0273 7.74916 48.9922 7.49395 48.9922C7.03302 48.9922 6.62026 49.1081 6.25567 49.3398C5.89369 49.5716 5.60723 49.9115 5.3963 50.3594C5.18796 50.8073 5.0838 51.3542 5.0838 52C5.0838 52.651 5.18796 53.2005 5.3963 53.6484C5.60723 54.0964 5.895 54.4349 6.25958 54.6641C6.62416 54.8932 7.03432 55.0078 7.49005 55.0078C7.74265 55.0078 7.98224 54.974 8.2088 54.9062C8.43796 54.8359 8.645 54.7331 8.82989 54.5977C9.01479 54.4622 9.17104 54.2969 9.29864 54.1016C9.42885 53.9036 9.51869 53.6771 9.56817 53.4219L10.7869 53.4258C10.7218 53.819 10.5955 54.181 10.408 54.5117C10.2231 54.8398 9.98484 55.1237 9.69317 55.3633C9.40411 55.6003 9.07338 55.7839 8.70099 55.9141C8.32859 56.0443 7.92234 56.1094 7.48224 56.1094C6.78953 56.1094 6.17234 55.9453 5.63067 55.6172C5.08901 55.2865 4.66192 54.8138 4.34942 54.1992C4.03953 53.5846 3.88458 52.8516 3.88458 52C3.88458 51.1458 4.04083 50.4128 4.35333 49.8008C4.66583 49.1862 5.09291 48.7148 5.63458 48.3867C6.17625 48.056 6.79213 47.8906 7.48224 47.8906C7.90671 47.8906 8.30255 47.9518 8.66974 48.0742C9.03953 48.194 9.37156 48.3711 9.66583 48.6055C9.9601 48.8372 10.2036 49.1211 10.3963 49.457C10.589 49.7904 10.7192 50.1719 10.7869 50.6016ZM13.1845 52.4375V56H12.0165V48H13.1689V50.9766H13.2431C13.3837 50.6536 13.5985 50.3971 13.8876 50.207C14.1767 50.0169 14.5543 49.9219 15.0204 49.9219C15.4319 49.9219 15.7912 50.0065 16.0985 50.1758C16.4084 50.3451 16.648 50.5977 16.8173 50.9336C16.9892 51.2669 17.0751 51.6836 17.0751 52.1836V56H15.9071V52.3242C15.9071 51.8841 15.7939 51.543 15.5673 51.3008C15.3407 51.056 15.0256 50.9336 14.622 50.9336C14.3459 50.9336 14.0985 50.9922 13.8798 51.1094C13.6636 51.2266 13.4931 51.3984 13.3681 51.625C13.2457 51.849 13.1845 52.1198 13.1845 52.4375ZM21.0986 56.1211C20.5075 56.1211 19.9984 55.9948 19.5713 55.7422C19.1468 55.487 18.8187 55.1289 18.5869 54.668C18.3577 54.2044 18.2432 53.6615 18.2432 53.0391C18.2432 52.4245 18.3577 51.8828 18.5869 51.4141C18.8187 50.9453 19.1416 50.5794 19.5557 50.3164C19.9723 50.0534 20.4593 49.9219 21.0166 49.9219C21.3551 49.9219 21.6833 49.9779 22.001 50.0898C22.3187 50.2018 22.6038 50.3776 22.8564 50.6172C23.1091 50.8568 23.3083 51.168 23.4541 51.5508C23.5999 51.931 23.6729 52.3932 23.6729 52.9375V53.3516H18.9033V52.4766H22.5283C22.5283 52.1693 22.4658 51.8971 22.3408 51.6602C22.2158 51.4206 22.04 51.2318 21.8135 51.0937C21.5895 50.9557 21.3265 50.8867 21.0244 50.8867C20.6963 50.8867 20.4098 50.9674 20.165 51.1289C19.9229 51.2878 19.7354 51.4961 19.6025 51.7539C19.4723 52.0091 19.4072 52.2865 19.4072 52.5859V53.2695C19.4072 53.6706 19.4775 54.0117 19.6182 54.293C19.7614 54.5742 19.9606 54.7891 20.2158 54.9375C20.471 55.0833 20.7692 55.1562 21.1104 55.1562C21.3317 55.1562 21.5335 55.125 21.7158 55.0625C21.8981 54.9974 22.0557 54.901 22.1885 54.7734C22.3213 54.6458 22.4229 54.4883 22.4932 54.3008L23.5986 54.5C23.5101 54.8255 23.3512 55.1107 23.1221 55.3555C22.8955 55.5977 22.6104 55.7865 22.2666 55.9219C21.9255 56.0547 21.5361 56.1211 21.0986 56.1211ZM29.3438 51.4648L28.2852 51.6523C28.241 51.5169 28.1707 51.388 28.0743 51.2656C27.9806 51.1432 27.853 51.043 27.6915 50.9648C27.53 50.8867 27.3282 50.8477 27.086 50.8477C26.7553 50.8477 26.4793 50.9219 26.2579 51.0703C26.0366 51.2161 25.9259 51.4049 25.9259 51.6367C25.9259 51.8372 26.0001 51.9987 26.1485 52.1211C26.297 52.2435 26.5366 52.3437 26.8673 52.4219L27.8204 52.6406C28.3725 52.7682 28.7839 52.9648 29.0548 53.2305C29.3256 53.4961 29.461 53.8411 29.461 54.2656C29.461 54.625 29.3569 54.9453 29.1485 55.2266C28.9428 55.5052 28.655 55.724 28.2852 55.8828C27.9181 56.0417 27.4923 56.1211 27.0079 56.1211C26.336 56.1211 25.7879 55.9779 25.3634 55.6914C24.9389 55.4023 24.6785 54.9922 24.5821 54.4609L25.711 54.2891C25.7813 54.5833 25.9259 54.806 26.1446 54.957C26.3634 55.1055 26.6485 55.1797 27.0001 55.1797C27.3829 55.1797 27.6889 55.1003 27.9181 54.9414C28.1472 54.7799 28.2618 54.5833 28.2618 54.3516C28.2618 54.1641 28.1915 54.0065 28.0509 53.8789C27.9129 53.7513 27.7006 53.6549 27.4142 53.5898L26.3985 53.3672C25.8386 53.2396 25.4246 53.0365 25.1563 52.7578C24.8907 52.4792 24.7579 52.1263 24.7579 51.6992C24.7579 51.3451 24.8569 51.0352 25.0548 50.7695C25.2527 50.5039 25.5261 50.2969 25.8751 50.1484C26.2241 49.9974 26.6238 49.9219 27.0743 49.9219C27.7227 49.9219 28.2332 50.0625 28.6056 50.3437C28.978 50.6224 29.2241 50.9961 29.3438 51.4648ZM35.1203 51.4648L34.0617 51.6523C34.0174 51.5169 33.9471 51.388 33.8508 51.2656C33.757 51.1432 33.6294 51.043 33.468 50.9648C33.3065 50.8867 33.1047 50.8477 32.8625 50.8477C32.5318 50.8477 32.2557 50.9219 32.0344 51.0703C31.813 51.2161 31.7023 51.4049 31.7023 51.6367C31.7023 51.8372 31.7766 51.9987 31.925 52.1211C32.0734 52.2435 32.313 52.3437 32.6437 52.4219L33.5969 52.6406C34.149 52.7682 34.5604 52.9648 34.8312 53.2305C35.1021 53.4961 35.2375 53.8411 35.2375 54.2656C35.2375 54.625 35.1333 54.9453 34.925 55.2266C34.7193 55.5052 34.4315 55.724 34.0617 55.8828C33.6945 56.0417 33.2687 56.1211 32.7844 56.1211C32.1125 56.1211 31.5643 55.9779 31.1398 55.6914C30.7154 55.4023 30.4549 54.9922 30.3586 54.4609L31.4875 54.2891C31.5578 54.5833 31.7023 54.806 31.9211 54.957C32.1398 55.1055 32.425 55.1797 32.7766 55.1797C33.1594 55.1797 33.4654 55.1003 33.6945 54.9414C33.9237 54.7799 34.0383 54.5833 34.0383 54.3516C34.0383 54.1641 33.968 54.0065 33.8273 53.8789C33.6893 53.7513 33.4771 53.6549 33.1906 53.5898L32.175 53.3672C31.6151 53.2396 31.201 53.0365 30.9328 52.7578C30.6672 52.4792 30.5344 52.1263 30.5344 51.6992C30.5344 51.3451 30.6333 51.0352 30.8312 50.7695C31.0292 50.5039 31.3026 50.2969 31.6516 50.1484C32.0005 49.9974 32.4003 49.9219 32.8508 49.9219C33.4992 49.9219 34.0096 50.0625 34.382 50.3437C34.7544 50.6224 35.0005 50.9961 35.1203 51.4648Z" fill="#EDF2EB"/>
<path d="M6.66675 36.6666V28.3333C9.11119 26.6666 10.9029 24.9305 12.0417 23.1249C13.1806 21.3194 13.9584 19.7221 14.3751 18.3333H10.0001V14.9999H13.7501C13.3612 14.3888 13.0556 13.736 12.8334 13.0416C12.6112 12.3471 12.5001 11.611 12.5001 10.8333C12.5001 8.74992 13.2292 6.97909 14.6876 5.52075C16.1459 4.06242 17.9167 3.33325 20.0001 3.33325C22.0834 3.33325 23.8542 4.06242 25.3126 5.52075C26.7709 6.97909 27.5001 8.74992 27.5001 10.8333C27.5001 11.611 27.389 12.3471 27.1667 13.0416C26.9445 13.736 26.639 14.3888 26.2501 14.9999H30.0001V18.3333H25.6251C26.0417 19.7221 26.8195 21.3194 27.9584 23.1249C29.0973 24.9305 30.889 26.6666 33.3334 28.3333V36.6666H6.66675ZM10.0001 33.3333H30.0001V29.9999C27.4445 27.9999 25.5973 25.9374 24.4584 23.8124C23.3195 21.6874 22.5556 19.861 22.1667 18.3333H17.8334C17.4445 19.861 16.6806 21.6874 15.5417 23.8124C14.4029 25.9374 12.5556 27.9999 10.0001 29.9999V33.3333ZM20.0001 14.9999C21.1667 14.9999 22.1529 14.5971 22.9584 13.7916C23.764 12.986 24.1667 11.9999 24.1667 10.8333C24.1667 9.66658 23.764 8.68047 22.9584 7.87492C22.1529 7.06936 21.1667 6.66659 20.0001 6.66659C18.8334 6.66659 17.8473 7.06936 17.0417 7.87492C16.2362 8.68047 15.8334 9.66658 15.8334 10.8333C15.8334 11.9999 16.2362 12.986 17.0417 13.7916C17.8473 14.5971 18.8334 14.9999 20.0001 14.9999Z" fill="#E8EAED"/>
</svg>
