<svg width="40" height="57" viewBox="0 0 40 57" fill="none" xmlns="http://www.w3.org/2000/svg">
<path d="M5.47442 56H2.88458V48H5.55645C6.34031 48 7.01349 48.1602 7.57599 48.4805C8.13849 48.7982 8.56947 49.2552 8.86895 49.8516C9.17104 50.4453 9.32208 51.1576 9.32208 51.9883C9.32208 52.8216 9.16974 53.5378 8.86505 54.1367C8.56296 54.7357 8.12546 55.1966 7.55255 55.5195C6.97963 55.8398 6.28692 56 5.47442 56ZM4.09161 54.9453H5.40802C6.01739 54.9453 6.5239 54.8307 6.92755 54.6016C7.33119 54.3698 7.63328 54.0352 7.8338 53.5977C8.03432 53.1576 8.13458 52.6211 8.13458 51.9883C8.13458 51.3607 8.03432 50.8281 7.8338 50.3906C7.63588 49.9531 7.34031 49.6211 6.94708 49.3945C6.55385 49.168 6.06557 49.0547 5.48224 49.0547H4.09161V54.9453ZM12.3544 56.1328C11.9742 56.1328 11.6304 56.0625 11.3231 55.9219C11.0159 55.7786 10.7724 55.5716 10.5927 55.3008C10.4156 55.0299 10.3271 54.6979 10.3271 54.3047C10.3271 53.9661 10.3922 53.6875 10.5224 53.4687C10.6526 53.25 10.8284 53.0768 11.0497 52.9492C11.2711 52.8216 11.5185 52.7253 11.7919 52.6602C12.0653 52.5951 12.344 52.5456 12.6278 52.5117C12.9872 52.4701 13.2789 52.4362 13.5028 52.4102C13.7268 52.3815 13.8896 52.3359 13.9911 52.2734C14.0927 52.2109 14.1435 52.1094 14.1435 51.9687V51.9414C14.1435 51.6003 14.0471 51.3359 13.8544 51.1484C13.6643 50.9609 13.3804 50.8672 13.0028 50.8672C12.6096 50.8672 12.2997 50.9544 12.0731 51.1289C11.8492 51.3008 11.6942 51.4922 11.6083 51.7031L10.5106 51.4531C10.6409 51.0885 10.831 50.7943 11.081 50.5703C11.3336 50.3437 11.6239 50.1797 11.9521 50.0781C12.2802 49.974 12.6252 49.9219 12.9872 49.9219C13.2268 49.9219 13.4807 49.9505 13.7489 50.0078C14.0198 50.0625 14.2724 50.1641 14.5067 50.3125C14.7437 50.4609 14.9377 50.6732 15.0888 50.9492C15.2398 51.2227 15.3153 51.5781 15.3153 52.0156V56H14.1747V55.1797H14.1278C14.0523 55.3307 13.939 55.4792 13.788 55.625C13.637 55.7708 13.4429 55.8919 13.206 55.9883C12.969 56.0846 12.6851 56.1328 12.3544 56.1328ZM12.6083 55.1953C12.9312 55.1953 13.2073 55.1315 13.4364 55.0039C13.6682 54.8763 13.844 54.7096 13.9638 54.5039C14.0862 54.2956 14.1474 54.0729 14.1474 53.8359V53.0625C14.1057 53.1042 14.025 53.1432 13.9052 53.1797C13.788 53.2135 13.6539 53.2435 13.5028 53.2695C13.3518 53.293 13.2047 53.3151 13.0614 53.3359C12.9182 53.3542 12.7984 53.3698 12.7021 53.3828C12.4755 53.4115 12.2685 53.4596 12.081 53.5273C11.8961 53.5951 11.7476 53.6927 11.6356 53.8203C11.5263 53.9453 11.4716 54.112 11.4716 54.3203C11.4716 54.6094 11.5784 54.8281 11.7919 54.9766C12.0054 55.1224 12.2776 55.1953 12.6083 55.1953ZM17.918 52.4375V56H16.75V50H17.8711V50.9766H17.9453C18.0833 50.6589 18.2995 50.4036 18.5938 50.2109C18.8906 50.0182 19.2643 49.9219 19.7148 49.9219C20.1237 49.9219 20.4818 50.0078 20.7891 50.1797C21.0964 50.349 21.3346 50.6016 21.5039 50.9375C21.6732 51.2734 21.7578 51.6888 21.7578 52.1836V56H20.5898V52.3242C20.5898 51.8893 20.4766 51.5495 20.25 51.3047C20.0234 51.0573 19.7122 50.9336 19.3164 50.9336C19.0456 50.9336 18.8047 50.9922 18.5938 51.1094C18.3854 51.2266 18.2201 51.3984 18.0977 51.625C17.9779 51.849 17.918 52.1198 17.918 52.4375ZM25.7306 56.1211C25.1498 56.1211 24.6498 55.9896 24.2306 55.7266C23.8139 55.4609 23.4936 55.0951 23.2696 54.6289C23.0457 54.1628 22.9337 53.6289 22.9337 53.0273C22.9337 52.418 23.0483 51.8802 23.2774 51.4141C23.5066 50.9453 23.8295 50.5794 24.2462 50.3164C24.6629 50.0534 25.1537 49.9219 25.7188 49.9219C26.1746 49.9219 26.5808 50.0065 26.9376 50.1758C27.2944 50.3424 27.5821 50.5768 27.8009 50.8789C28.0222 51.181 28.1537 51.5339 28.1954 51.9375H27.0587C26.9962 51.6562 26.853 51.4141 26.629 51.2109C26.4076 51.0078 26.1108 50.9062 25.7384 50.9062C25.4129 50.9062 25.1277 50.9922 24.8829 51.1641C24.6407 51.3333 24.4519 51.5755 24.3165 51.8906C24.1811 52.2031 24.1134 52.5729 24.1134 53C24.1134 53.4375 24.1798 53.8151 24.3126 54.1328C24.4454 54.4505 24.6329 54.6966 24.8751 54.8711C25.1199 55.0456 25.4076 55.1328 25.7384 55.1328C25.9597 55.1328 26.1602 55.0924 26.3399 55.0117C26.5222 54.9284 26.6746 54.8099 26.797 54.6562C26.922 54.5026 27.0092 54.3177 27.0587 54.1016H28.1954C28.1537 54.4896 28.0274 54.8359 27.8165 55.1406C27.6056 55.4453 27.323 55.6849 26.9688 55.8594C26.6173 56.0339 26.2045 56.1211 25.7306 56.1211ZM31.9094 56.1211C31.3182 56.1211 30.8091 55.9948 30.382 55.7422C29.9575 55.487 29.6294 55.1289 29.3976 54.668C29.1685 54.2044 29.0539 53.6615 29.0539 53.0391C29.0539 52.4245 29.1685 51.8828 29.3976 51.4141C29.6294 50.9453 29.9523 50.5794 30.3664 50.3164C30.7831 50.0534 31.27 49.9219 31.8273 49.9219C32.1659 49.9219 32.494 49.9779 32.8117 50.0898C33.1294 50.2018 33.4146 50.3776 33.6672 50.6172C33.9198 50.8568 34.119 51.168 34.2648 51.5508C34.4107 51.931 34.4836 52.3932 34.4836 52.9375V53.3516H29.7141V52.4766H33.3391C33.3391 52.1693 33.2766 51.8971 33.1516 51.6602C33.0266 51.4206 32.8508 51.2318 32.6242 51.0937C32.4003 50.9557 32.1372 50.8867 31.8351 50.8867C31.507 50.8867 31.2206 50.9674 30.9758 51.1289C30.7336 51.2878 30.5461 51.4961 30.4133 51.7539C30.2831 52.0091 30.218 52.2865 30.218 52.5859V53.2695C30.218 53.6706 30.2883 54.0117 30.4289 54.293C30.5721 54.5742 30.7713 54.7891 31.0266 54.9375C31.2818 55.0833 31.5799 55.1562 31.9211 55.1562C32.1424 55.1562 32.3443 55.125 32.5266 55.0625C32.7088 54.9974 32.8664 54.901 32.9992 54.7734C33.132 54.6458 33.2336 54.4883 33.3039 54.3008L34.4094 54.5C34.3208 54.8255 34.162 55.1107 33.9328 55.3555C33.7062 55.5977 33.4211 55.7865 33.0773 55.9219C32.7362 56.0547 32.3469 56.1211 31.9094 56.1211Z" fill="#EDF2EB"/>
<path d="M9.08322 24.125C8.41655 24.4861 7.70822 24.5625 6.95822 24.3542C6.20822 24.1458 5.63877 23.7222 5.24988 23.0833C4.77766 22.2778 4.69433 21.4444 4.99988 20.5833C5.30544 19.7222 5.90266 19.1389 6.79155 18.8333L20.8332 14.1667L22.3332 17.125L9.08322 24.125ZM9.99988 35V25.5417L24.5416 17.875L23.8332 16.4167L33.3332 11.6667L34.8332 14.6667L23.3332 23.3333V35H9.99988ZM12.4999 16.6667C10.8888 16.6667 9.51377 16.0972 8.37488 14.9583C7.23599 13.8194 6.66655 12.4444 6.66655 10.8333C6.66655 9.22222 7.23599 7.84722 8.37488 6.70833C9.51377 5.56944 10.8888 5 12.4999 5C14.111 5 15.486 5.56944 16.6249 6.70833C17.7638 7.84722 18.3332 9.22222 18.3332 10.8333C18.3332 12.4444 17.7638 13.8194 16.6249 14.9583C15.486 16.0972 14.111 16.6667 12.4999 16.6667Z" fill="#E8EAED"/>
</svg>
