<svg width="45" height="59" viewBox="0 0 45 59" fill="none" xmlns="http://www.w3.org/2000/svg">
<path d="M9.66667 35V27.9167L31.625 6C31.9583 5.66667 32.3333 5.41667 32.75 5.25C33.1667 5.08333 33.5833 5 34 5C34.4444 5 34.8681 5.08333 35.2708 5.25C35.6736 5.41667 36.0278 5.66667 36.3333 6L38.6667 8.33333C39 8.63889 39.25 8.99306 39.4167 9.39583C39.5833 9.79861 39.6667 10.2222 39.6667 10.6667C39.6667 11.0833 39.5833 11.5 39.4167 11.9167C39.25 12.3333 39 12.7083 38.6667 13.0417L16.75 35H9.66667ZM13 31.6667H15.3333L31.7083 15.3333L30.5417 14.125L29.3333 12.9583L13 29.3333V31.6667ZM30.5417 14.125L29.3333 12.9583L31.7083 15.3333L30.5417 14.125ZM26.3333 35C28.3889 35 30.2917 34.4861 32.0417 33.4583C33.7917 32.4306 34.6667 31 34.6667 29.1667C34.6667 28.1667 34.4028 27.3056 33.875 26.5833C33.3472 25.8611 32.6389 25.2361 31.75 24.7083L29.2917 27.1667C29.9306 27.4444 30.4306 27.75 30.7917 28.0833C31.1528 28.4167 31.3333 28.7778 31.3333 29.1667C31.3333 29.8056 30.8264 30.3819 29.8125 30.8958C28.7986 31.4097 27.6389 31.6667 26.3333 31.6667C25.8611 31.6667 25.4653 31.8264 25.1458 32.1458C24.8264 32.4653 24.6667 32.8611 24.6667 33.3333C24.6667 33.8056 24.8264 34.2014 25.1458 34.5208C25.4653 34.8403 25.8611 35 26.3333 35ZM10.625 22.25L13.125 19.75C12.5694 19.5278 12.1319 19.2986 11.8125 19.0625C11.4931 18.8264 11.3333 18.5833 11.3333 18.3333C11.3333 18 11.5833 17.6667 12.0833 17.3333C12.5833 17 13.6389 16.4861 15.25 15.7917C17.6944 14.7361 19.3194 13.7778 20.125 12.9167C20.9306 12.0556 21.3333 11.0833 21.3333 10C21.3333 8.47222 20.7222 7.25694 19.5 6.35417C18.2778 5.45139 16.6667 5 14.6667 5C13.4167 5 12.2986 5.22222 11.3125 5.66667C10.3264 6.11111 9.56944 6.65278 9.04167 7.29167C8.73611 7.65278 8.61111 8.05556 8.66667 8.5C8.72222 8.94444 8.93056 9.30556 9.29167 9.58333C9.65278 9.88889 10.0556 10.0139 10.5 9.95833C10.9444 9.90278 11.3194 9.72222 11.625 9.41667C12.0139 9.02778 12.4444 8.75 12.9167 8.58333C13.3889 8.41667 13.9722 8.33333 14.6667 8.33333C15.8056 8.33333 16.6458 8.5 17.1875 8.83333C17.7292 9.16667 18 9.55556 18 10C18 10.3889 17.7569 10.7431 17.2708 11.0625C16.7847 11.3819 15.6667 11.9444 13.9167 12.75C11.6944 13.7222 10.1528 14.6042 9.29167 15.3958C8.43056 16.1875 8 17.1667 8 18.3333C8 19.2222 8.23611 19.9792 8.70833 20.6042C9.18056 21.2292 9.81944 21.7778 10.625 22.25Z" fill="#E8EAED"/>
<path d="M4.55734 56H1.96749V48H4.63937C5.42322 48 6.0964 48.1602 6.6589 48.4805C7.2214 48.7982 7.65239 49.2552 7.95187 49.8516C8.25395 50.4453 8.40499 51.1576 8.40499 51.9883C8.40499 52.8216 8.25265 53.5378 7.94796 54.1367C7.64588 54.7357 7.20838 55.1966 6.63546 55.5195C6.06255 55.8398 5.36984 56 4.55734 56ZM3.17452 54.9453H4.49093C5.10031 54.9453 5.60682 54.8307 6.01046 54.6016C6.41411 54.3698 6.71619 54.0352 6.91671 53.5977C7.11723 53.1576 7.21749 52.6211 7.21749 51.9883C7.21749 51.3607 7.11723 50.8281 6.91671 50.3906C6.7188 49.9531 6.42322 49.6211 6.02999 49.3945C5.63676 49.168 5.14848 49.0547 4.56515 49.0547H3.17452V54.9453ZM9.69122 56V50H10.8201V50.9531H10.8826C10.992 50.6302 11.1847 50.3763 11.4608 50.1914C11.7394 50.0039 12.0545 49.9102 12.4061 49.9102C12.479 49.9102 12.5649 49.9128 12.6639 49.918C12.7654 49.9232 12.8449 49.9297 12.9022 49.9375V51.0547C12.8553 51.0417 12.7719 51.0273 12.6522 51.0117C12.5324 50.9935 12.4126 50.9844 12.2928 50.9844C12.0167 50.9844 11.7706 51.043 11.5545 51.1602C11.341 51.2747 11.1717 51.4349 11.0467 51.6406C10.9217 51.8437 10.8592 52.0755 10.8592 52.3359V56H9.69122ZM15.4843 56.1328C15.1041 56.1328 14.7603 56.0625 14.453 55.9219C14.1457 55.7786 13.9023 55.5716 13.7226 55.3008C13.5455 55.0299 13.4569 54.6979 13.4569 54.3047C13.4569 53.9661 13.522 53.6875 13.6523 53.4687C13.7825 53.25 13.9582 53.0768 14.1796 52.9492C14.4009 52.8216 14.6483 52.7253 14.9218 52.6602C15.1952 52.5951 15.4739 52.5456 15.7577 52.5117C16.1171 52.4701 16.4088 52.4362 16.6327 52.4102C16.8567 52.3815 17.0194 52.3359 17.121 52.2734C17.2226 52.2109 17.2733 52.1094 17.2733 51.9687V51.9414C17.2733 51.6003 17.177 51.3359 16.9843 51.1484C16.7942 50.9609 16.5103 50.8672 16.1327 50.8672C15.7395 50.8672 15.4296 50.9544 15.203 51.1289C14.9791 51.3008 14.8241 51.4922 14.7382 51.7031L13.6405 51.4531C13.7707 51.0885 13.9608 50.7943 14.2108 50.5703C14.4634 50.3437 14.7538 50.1797 15.0819 50.0781C15.4101 49.974 15.7551 49.9219 16.1171 49.9219C16.3567 49.9219 16.6106 49.9505 16.8788 50.0078C17.1496 50.0625 17.4023 50.1641 17.6366 50.3125C17.8736 50.4609 18.0676 50.6732 18.2187 50.9492C18.3697 51.2227 18.4452 51.5781 18.4452 52.0156V56H17.3046V55.1797H17.2577C17.1822 55.3307 17.0689 55.4792 16.9179 55.625C16.7668 55.7708 16.5728 55.8919 16.3358 55.9883C16.0989 56.0846 15.815 56.1328 15.4843 56.1328ZM15.7382 55.1953C16.0611 55.1953 16.3371 55.1315 16.5663 55.0039C16.7981 54.8763 16.9739 54.7096 17.0937 54.5039C17.2161 54.2956 17.2773 54.0729 17.2773 53.8359V53.0625C17.2356 53.1042 17.1549 53.1432 17.0351 53.1797C16.9179 53.2135 16.7838 53.2435 16.6327 53.2695C16.4817 53.293 16.3345 53.3151 16.1913 53.3359C16.0481 53.3542 15.9283 53.3698 15.8319 53.3828C15.6054 53.4115 15.3983 53.4596 15.2108 53.5273C15.0259 53.5951 14.8775 53.6927 14.7655 53.8203C14.6562 53.9453 14.6015 54.112 14.6015 54.3203C14.6015 54.6094 14.7082 54.8281 14.9218 54.9766C15.1353 55.1224 15.4075 55.1953 15.7382 55.1953ZM21.1807 56L19.415 50H20.6221L21.7979 54.4062H21.8564L23.0361 50H24.2432L25.415 54.3867H25.4736L26.6416 50H27.8486L26.0869 56H24.8955L23.6768 51.668H23.5869L22.3682 56H21.1807ZM28.836 56V50H30.004V56H28.836ZM29.4259 49.0742C29.2228 49.0742 29.0483 49.0065 28.9024 48.8711C28.7592 48.7331 28.6876 48.569 28.6876 48.3789C28.6876 48.1862 28.7592 48.0221 28.9024 47.8867C29.0483 47.7487 29.2228 47.6797 29.4259 47.6797C29.629 47.6797 29.8022 47.7487 29.9454 47.8867C30.0912 48.0221 30.1642 48.1862 30.1642 48.3789C30.1642 48.569 30.0912 48.7331 29.9454 48.8711C29.8022 49.0065 29.629 49.0742 29.4259 49.0742ZM32.6223 52.4375V56H31.4543V50H32.5754V50.9766H32.6496C32.7876 50.6589 33.0038 50.4036 33.298 50.2109C33.5949 50.0182 33.9686 49.9219 34.4191 49.9219C34.828 49.9219 35.1861 50.0078 35.4934 50.1797C35.8006 50.349 36.0389 50.6016 36.2082 50.9375C36.3775 51.2734 36.4621 51.6888 36.4621 52.1836V56H35.2941V52.3242C35.2941 51.8893 35.1809 51.5495 34.9543 51.3047C34.7277 51.0573 34.4165 50.9336 34.0207 50.9336C33.7499 50.9336 33.509 50.9922 33.298 51.1094C33.0897 51.2266 32.9243 51.3984 32.8019 51.625C32.6822 51.849 32.6223 52.1198 32.6223 52.4375ZM40.4231 58.375C39.9466 58.375 39.5364 58.3125 39.1927 58.1875C38.8515 58.0625 38.5729 57.8971 38.3567 57.6914C38.1406 57.4857 37.9791 57.2604 37.8724 57.0156L38.8763 56.6016C38.9466 56.7161 39.0403 56.8372 39.1575 56.9648C39.2773 57.0951 39.4388 57.2057 39.6419 57.2969C39.8476 57.388 40.1119 57.4336 40.4349 57.4336C40.8776 57.4336 41.2434 57.3255 41.5325 57.1094C41.8216 56.8958 41.9661 56.5547 41.9661 56.0859V54.9062H41.8919C41.8216 55.0339 41.72 55.1758 41.5872 55.332C41.457 55.4883 41.2773 55.6237 41.0481 55.7383C40.819 55.8529 40.5208 55.9102 40.1536 55.9102C39.6796 55.9102 39.2526 55.7995 38.8724 55.5781C38.4947 55.3542 38.1953 55.0247 37.9739 54.5898C37.7552 54.1523 37.6458 53.6146 37.6458 52.9766C37.6458 52.3385 37.7539 51.7917 37.97 51.3359C38.1888 50.8802 38.4882 50.5312 38.8684 50.2891C39.2487 50.0443 39.6796 49.9219 40.1614 49.9219C40.5338 49.9219 40.8346 49.9844 41.0638 50.1094C41.2929 50.2318 41.4713 50.375 41.5989 50.5391C41.7291 50.7031 41.8294 50.8477 41.8997 50.9727H41.9856V50H43.1302V56.1328C43.1302 56.6484 43.0104 57.0716 42.7708 57.4023C42.5312 57.7331 42.207 57.9779 41.7981 58.1367C41.3919 58.2956 40.9336 58.375 40.4231 58.375ZM40.4114 54.9414C40.7474 54.9414 41.0312 54.8633 41.263 54.707C41.4974 54.5482 41.6744 54.3216 41.7942 54.0273C41.9166 53.7305 41.9778 53.375 41.9778 52.9609C41.9778 52.5573 41.9179 52.2018 41.7981 51.8945C41.6783 51.5872 41.5026 51.3477 41.2708 51.1758C41.039 51.0013 40.7526 50.9141 40.4114 50.9141C40.0599 50.9141 39.7669 51.0052 39.5325 51.1875C39.2981 51.3672 39.1211 51.612 39.0013 51.9219C38.8841 52.2318 38.8255 52.5781 38.8255 52.9609C38.8255 53.3542 38.8854 53.6992 39.0052 53.9961C39.125 54.293 39.302 54.5247 39.5364 54.6914C39.7734 54.8581 40.0651 54.9414 40.4114 54.9414Z" fill="#EDF2EB"/>
</svg>
