<svg width="40" height="38" viewBox="0 0 40 38" fill="none" xmlns="http://www.w3.org/2000/svg">
<path d="M2.31022 35.3611V27.3611H7.32584V28.4001H3.51725V30.8376H7.06413V31.8728H3.51725V34.322H7.37272V35.3611H2.31022ZM9.89137 31.7986V35.3611H8.7234V29.3611H9.84449V30.3376H9.91871C10.0567 30.0199 10.2729 29.7647 10.5671 29.572C10.864 29.3793 11.2377 29.283 11.6882 29.283C12.0971 29.283 12.4552 29.3689 12.7625 29.5408C13.0698 29.71 13.308 29.9626 13.4773 30.2986C13.6466 30.6345 13.7312 31.0499 13.7312 31.5447V35.3611H12.5632V31.6853C12.5632 31.2504 12.45 30.9106 12.2234 30.6658C11.9968 30.4184 11.6856 30.2947 11.2898 30.2947C11.019 30.2947 10.7781 30.3533 10.5671 30.4705C10.3588 30.5876 10.1935 30.7595 10.0711 30.9861C9.95126 31.21 9.89137 31.4809 9.89137 31.7986ZM17.6922 37.7361C17.2157 37.7361 16.8055 37.6736 16.4618 37.5486C16.1206 37.4236 15.842 37.2582 15.6258 37.0525C15.4097 36.8468 15.2482 36.6215 15.1415 36.3767L16.1454 35.9626C16.2157 36.0772 16.3094 36.1983 16.4266 36.3259C16.5464 36.4561 16.7079 36.5668 16.911 36.658C17.1167 36.7491 17.381 36.7947 17.704 36.7947C18.1467 36.7947 18.5126 36.6866 18.8016 36.4705C19.0907 36.2569 19.2352 35.9158 19.2352 35.447V34.2673H19.161C19.0907 34.3949 18.9891 34.5369 18.8563 34.6931C18.7261 34.8494 18.5464 34.9848 18.3172 35.0994C18.0881 35.2139 17.7899 35.2712 17.4227 35.2712C16.9488 35.2712 16.5217 35.1606 16.1415 34.9392C15.7639 34.7153 15.4644 34.3858 15.243 33.9509C15.0243 33.5134 14.9149 32.9757 14.9149 32.3376C14.9149 31.6996 15.023 31.1528 15.2391 30.697C15.4579 30.2413 15.7573 29.8923 16.1376 29.6501C16.5178 29.4054 16.9488 29.283 17.4305 29.283C17.8029 29.283 18.1037 29.3455 18.3329 29.4705C18.562 29.5929 18.7404 29.7361 18.868 29.9001C18.9982 30.0642 19.0985 30.2087 19.1688 30.3337H19.2547V29.3611H20.3993V35.4939C20.3993 36.0095 20.2795 36.4327 20.0399 36.7634C19.8003 37.0942 19.4761 37.3389 19.0672 37.4978C18.661 37.6567 18.2027 37.7361 17.6922 37.7361ZM17.6805 34.3025C18.0165 34.3025 18.3003 34.2244 18.5321 34.0681C18.7665 33.9093 18.9435 33.6827 19.0633 33.3884C19.1857 33.0916 19.2469 32.7361 19.2469 32.322C19.2469 31.9184 19.187 31.5629 19.0672 31.2556C18.9475 30.9483 18.7717 30.7087 18.5399 30.5369C18.3081 30.3624 18.0217 30.2751 17.6805 30.2751C17.329 30.2751 17.036 30.3663 16.8016 30.5486C16.5672 30.7283 16.3902 30.9731 16.2704 31.283C16.1532 31.5929 16.0946 31.9392 16.0946 32.322C16.0946 32.7153 16.1545 33.0603 16.2743 33.3572C16.3941 33.6541 16.5711 33.8858 16.8055 34.0525C17.0425 34.2192 17.3342 34.3025 17.6805 34.3025ZM23.0126 27.3611V35.3611H21.8447V27.3611H23.0126ZM24.4629 35.3611V29.3611H25.6309V35.3611H24.4629ZM25.0528 28.4353C24.8497 28.4353 24.6752 28.3676 24.5293 28.2322C24.3861 28.0942 24.3145 27.9301 24.3145 27.74C24.3145 27.5473 24.3861 27.3832 24.5293 27.2478C24.6752 27.1098 24.8497 27.0408 25.0528 27.0408C25.2559 27.0408 25.4291 27.1098 25.5723 27.2478C25.7181 27.3832 25.7911 27.5473 25.7911 27.74C25.7911 27.9301 25.7181 28.0942 25.5723 28.2322C25.4291 28.3676 25.2559 28.4353 25.0528 28.4353ZM31.5773 30.8259L30.5187 31.0134C30.4744 30.878 30.4041 30.7491 30.3078 30.6267C30.214 30.5043 30.0864 30.4041 29.9249 30.3259C29.7635 30.2478 29.5617 30.2087 29.3195 30.2087C28.9887 30.2087 28.7127 30.283 28.4914 30.4314C28.27 30.5772 28.1593 30.766 28.1593 30.9978C28.1593 31.1983 28.2335 31.3598 28.382 31.4822C28.5304 31.6046 28.77 31.7048 29.1007 31.783L30.0539 32.0017C30.6059 32.1293 31.0174 32.3259 31.2882 32.5916C31.5591 32.8572 31.6945 33.2022 31.6945 33.6267C31.6945 33.9861 31.5903 34.3064 31.382 34.5876C31.1762 34.8663 30.8885 35.085 30.5187 35.2439C30.1515 35.4028 29.7257 35.4822 29.2414 35.4822C28.5695 35.4822 28.0213 35.3389 27.5968 35.0525C27.1723 34.7634 26.9119 34.3533 26.8156 33.822L27.9445 33.6501C28.0148 33.9444 28.1593 34.1671 28.3781 34.3181C28.5968 34.4666 28.882 34.5408 29.2335 34.5408C29.6164 34.5408 29.9223 34.4613 30.1515 34.3025C30.3807 34.141 30.4953 33.9444 30.4953 33.7126C30.4953 33.5251 30.4249 33.3676 30.2843 33.24C30.1463 33.1124 29.9341 33.016 29.6476 32.9509L28.632 32.7283C28.0721 32.6007 27.658 32.3975 27.3898 32.1189C27.1242 31.8403 26.9914 31.4874 26.9914 31.0603C26.9914 30.7061 27.0903 30.3962 27.2882 30.1306C27.4861 29.865 27.7596 29.658 28.1085 29.5095C28.4575 29.3585 28.8572 29.283 29.3078 29.283C29.9562 29.283 30.4666 29.4236 30.839 29.7048C31.2114 29.9835 31.4575 30.3572 31.5773 30.8259ZM34.0256 31.7986V35.3611H32.8577V27.3611H34.01V30.3376H34.0842C34.2248 30.0147 34.4397 29.7582 34.7288 29.5681C35.0178 29.378 35.3954 29.283 35.8616 29.283C36.273 29.283 36.6324 29.3676 36.9397 29.5369C37.2496 29.7061 37.4892 29.9587 37.6584 30.2947C37.8303 30.628 37.9163 31.0447 37.9163 31.5447V35.3611H36.7483V31.6853C36.7483 31.2452 36.635 30.9041 36.4084 30.6619C36.1819 30.4171 35.8668 30.2947 35.4631 30.2947C35.1871 30.2947 34.9397 30.3533 34.7209 30.4705C34.5048 30.5876 34.3342 30.7595 34.2092 30.9861C34.0868 31.21 34.0256 31.4809 34.0256 31.7986Z" fill="#EDF2EB"/>
<path d="M13.4036 19.4443H10L17.6477 0H21.3523L29 19.4443H25.5964L19.5882 3.53188H19.4222L13.4036 19.4443ZM13.9743 11.8299H25.0153V14.2984H13.9743V11.8299Z" fill="#EDF2EB"/>
</svg>
