<svg width="40" height="36" viewBox="0 0 40 36" fill="none" xmlns="http://www.w3.org/2000/svg">
<path d="M7.63014 35.4424V27.4424H8.83717V30.9189H12.8254V27.4424H14.0364V35.4424H12.8254V31.9541H8.83717V35.4424H7.63014ZM15.5794 35.4424V29.4424H16.7474V35.4424H15.5794ZM16.1693 28.5166C15.9662 28.5166 15.7917 28.4489 15.6459 28.3135C15.5026 28.1755 15.431 28.0114 15.431 27.8213C15.431 27.6286 15.5026 27.4645 15.6459 27.3291C15.7917 27.1911 15.9662 27.1221 16.1693 27.1221C16.3724 27.1221 16.5456 27.1911 16.6888 27.3291C16.8347 27.4645 16.9076 27.6286 16.9076 27.8213C16.9076 28.0114 16.8347 28.1755 16.6888 28.3135C16.5456 28.4489 16.3724 28.5166 16.1693 28.5166ZM19.3657 31.8799V35.4424H18.1977V29.4424H19.3188V30.4189H19.393C19.531 30.1012 19.7472 29.846 20.0415 29.6533C20.3383 29.4606 20.712 29.3643 21.1626 29.3643C21.5714 29.3643 21.9295 29.4502 22.2368 29.6221C22.5441 29.7913 22.7823 30.0439 22.9516 30.3799C23.1209 30.7158 23.2055 31.1312 23.2055 31.626V35.4424H22.0376V31.7666C22.0376 31.3317 21.9243 30.9919 21.6977 30.7471C21.4711 30.4997 21.1599 30.376 20.7641 30.376C20.4933 30.376 20.2524 30.4346 20.0415 30.5518C19.8331 30.6689 19.6678 30.8408 19.5454 31.0674C19.4256 31.2913 19.3657 31.5622 19.3657 31.8799ZM26.897 35.5596C26.4126 35.5596 25.9804 35.4359 25.6001 35.1885C25.2225 34.9385 24.9257 34.583 24.7095 34.1221C24.496 33.6585 24.3892 33.1025 24.3892 32.4541C24.3892 31.8057 24.4973 31.251 24.7134 30.79C24.9322 30.3291 25.2317 29.9762 25.6119 29.7314C25.9921 29.4867 26.4231 29.3643 26.9048 29.3643C27.2772 29.3643 27.5767 29.4268 27.8033 29.5518C28.0324 29.6742 28.2095 29.8174 28.3345 29.9814C28.4621 30.1455 28.5611 30.29 28.6314 30.415H28.7017V27.4424H29.8697V35.4424H28.729V34.5088H28.6314C28.5611 34.6364 28.4595 34.7822 28.3267 34.9463C28.1965 35.1104 28.0168 35.2536 27.7876 35.376C27.5585 35.4984 27.2616 35.5596 26.897 35.5596ZM27.1548 34.5635C27.4908 34.5635 27.7746 34.4749 28.0064 34.2979C28.2408 34.1182 28.4179 33.8695 28.5376 33.5518C28.66 33.234 28.7212 32.8643 28.7212 32.4424C28.7212 32.0257 28.6613 31.6611 28.5415 31.3486C28.4218 31.0361 28.246 30.7926 28.0142 30.6182C27.7824 30.4437 27.496 30.3564 27.1548 30.3564C26.8033 30.3564 26.5103 30.4476 26.2759 30.6299C26.0415 30.8122 25.8645 31.0609 25.7447 31.376C25.6275 31.6911 25.5689 32.0465 25.5689 32.4424C25.5689 32.8434 25.6288 33.2041 25.7486 33.5244C25.8684 33.8447 26.0455 34.0986 26.2798 34.2861C26.5168 34.471 26.8085 34.5635 27.1548 34.5635ZM31.4157 35.4424V29.4424H32.5836V35.4424H31.4157ZM32.0055 28.5166C31.8024 28.5166 31.6279 28.4489 31.4821 28.3135C31.3388 28.1755 31.2672 28.0114 31.2672 27.8213C31.2672 27.6286 31.3388 27.4645 31.4821 27.3291C31.6279 27.1911 31.8024 27.1221 32.0055 27.1221C32.2086 27.1221 32.3818 27.1911 32.525 27.3291C32.6709 27.4645 32.7438 27.6286 32.7438 27.8213C32.7438 28.0114 32.6709 28.1755 32.525 28.3135C32.3818 28.4489 32.2086 28.5166 32.0055 28.5166Z" fill="#EDF2EB"/>
<path d="M22.272 13.1646C22.272 16.2658 19.968 18.038 16.832 18.038C13.024 18.038 10.464 15.8228 8 9.11393L10.272 8.1962C12 13.1329 13.824 15.7278 16.608 15.7278C18.496 15.7278 19.744 14.6835 19.744 12.8797C19.744 11.424 18.752 10.2848 17.504 9.39873C16.704 9.62025 15.744 9.77848 14.656 9.87342L14.144 7.62658C18.144 7.12025 19.2 6.26582 19.2 4.52532C19.2 3.13291 18.272 2.24683 16.544 2.24683C15.104 2.24683 13.728 2.68987 12.352 3.51266L11.52 1.29747C12.992 0.474683 14.656 0 16.64 0C20.288 0 21.76 2.12025 21.76 4.55696C21.76 6.20253 21.152 7.53165 19.712 8.44937L19.776 8.51266C20.8 8.76582 21.92 8.86076 22.912 8.86076C23.904 8.86076 24.96 8.76582 26.08 8.48101V2.56329H23.744V0.316455H32V2.56329H28.672V20H26.08V10.8228C25.216 11.0443 24.32 11.1076 23.424 11.1076C22.912 11.1076 22.304 11.0759 21.696 10.981C22.08 11.6456 22.272 12.4051 22.272 13.1646Z" fill="#EDF2EB"/>
</svg>
