<svg width="40" height="42" viewBox="0 0 40 42" fill="none" xmlns="http://www.w3.org/2000/svg">
<path d="M12 34.7222H5.33337V13.8888H12V34.7222ZM8.66804 11.1111C6.82404 11.1111 5.33337 9.55413 5.33337 7.63746C5.33337 5.72079 6.82671 4.16663 8.66804 4.16663C10.5054 4.16663 12 5.72357 12 7.63746C12 9.55413 10.5054 11.1111 8.66804 11.1111ZM36 34.7222H29.5907V24.5833C29.5907 22.1652 29.5467 19.0555 26.2587 19.0555C22.9214 19.0555 22.408 21.6888 22.408 24.4083V34.7222H16V13.8736H22.152V16.7222H22.2387C23.0947 15.0833 25.1867 13.3555 28.3067 13.3555C34.8 13.3555 36 17.6736 36 23.2875V34.7222Z" fill="white"/>
</svg>
