<svg width="48" height="57" viewBox="0 0 48 57" fill="none" xmlns="http://www.w3.org/2000/svg">
<path d="M1.15397 48H2.61881L5.16569 54.2187H5.25944L7.80631 48H9.27116V56H8.12272V50.2109H8.0485L5.68913 55.9883H4.736L2.37663 50.207H2.30241V56H1.15397V48ZM10.8113 56V50H11.9793V56H10.8113ZM11.4011 49.0742C11.198 49.0742 11.0235 49.0065 10.8777 48.8711C10.7345 48.7331 10.6629 48.569 10.6629 48.3789C10.6629 48.1862 10.7345 48.0221 10.8777 47.8867C11.0235 47.7487 11.198 47.6797 11.4011 47.6797C11.6043 47.6797 11.7774 47.7487 11.9207 47.8867C12.0665 48.0221 12.1394 48.1862 12.1394 48.3789C12.1394 48.569 12.0665 48.7331 11.9207 48.8711C11.7774 49.0065 11.6043 49.0742 11.4011 49.0742ZM13.4295 56V50H14.5506V50.9766H14.6249C14.7499 50.6458 14.9543 50.388 15.2381 50.2031C15.522 50.0156 15.8618 49.9219 16.2577 49.9219C16.6587 49.9219 16.9947 50.0156 17.2655 50.2031C17.5389 50.3906 17.7407 50.6484 17.871 50.9766H17.9335C18.0767 50.6562 18.3045 50.401 18.617 50.2109C18.9295 50.0182 19.3019 49.9219 19.7342 49.9219C20.2785 49.9219 20.7225 50.0924 21.0663 50.4336C21.4126 50.7747 21.5858 51.2891 21.5858 51.9766V56H20.4178V52.0859C20.4178 51.6797 20.3072 51.3854 20.0858 51.2031C19.8644 51.0208 19.6001 50.9297 19.2928 50.9297C18.9126 50.9297 18.617 51.0469 18.4061 51.2812C18.1952 51.513 18.0897 51.8112 18.0897 52.1758V56H16.9256V52.0117C16.9256 51.6862 16.8241 51.4245 16.621 51.2266C16.4178 51.0286 16.1535 50.9297 15.828 50.9297C15.6066 50.9297 15.4022 50.9883 15.2147 51.1055C15.0298 51.2201 14.8801 51.3802 14.7655 51.5859C14.6535 51.7917 14.5975 52.0299 14.5975 52.3008V56H13.4295ZM25.6162 56.1211C25.025 56.1211 24.5159 55.9948 24.0888 55.7422C23.6643 55.487 23.3362 55.1289 23.1044 54.668C22.8753 54.2044 22.7607 53.6615 22.7607 53.0391C22.7607 52.4245 22.8753 51.8828 23.1044 51.4141C23.3362 50.9453 23.6591 50.5794 24.0732 50.3164C24.4899 50.0534 24.9768 49.9219 25.5341 49.9219C25.8727 49.9219 26.2008 49.9779 26.5185 50.0898C26.8362 50.2018 27.1214 50.3776 27.374 50.6172C27.6266 50.8568 27.8258 51.168 27.9716 51.5508C28.1175 51.931 28.1904 52.3932 28.1904 52.9375V53.3516H23.4209V52.4766H27.0459C27.0459 52.1693 26.9834 51.8971 26.8584 51.6602C26.7334 51.4206 26.5576 51.2318 26.331 51.0937C26.107 50.9557 25.844 50.8867 25.5419 50.8867C25.2138 50.8867 24.9274 50.9674 24.6826 51.1289C24.4404 51.2878 24.2529 51.4961 24.1201 51.7539C23.9899 52.0091 23.9248 52.2865 23.9248 52.5859V53.2695C23.9248 53.6706 23.9951 54.0117 24.1357 54.293C24.2789 54.5742 24.4781 54.7891 24.7334 54.9375C24.9886 55.0833 25.2867 55.1562 25.6279 55.1562C25.8492 55.1562 26.0511 55.125 26.2334 55.0625C26.4156 54.9974 26.5732 54.901 26.706 54.7734C26.8388 54.6458 26.9404 54.4883 27.0107 54.3008L28.1162 54.5C28.0276 54.8255 27.8688 55.1107 27.6396 55.3555C27.413 55.5977 27.1279 55.7865 26.7841 55.9219C26.443 56.0547 26.0537 56.1211 25.6162 56.1211ZM33.9015 56.1328C33.5213 56.1328 33.1776 56.0625 32.8703 55.9219C32.563 55.7786 32.3195 55.5716 32.1398 55.3008C31.9627 55.0299 31.8742 54.6979 31.8742 54.3047C31.8742 53.9661 31.9393 53.6875 32.0695 53.4687C32.1997 53.25 32.3755 53.0768 32.5968 52.9492C32.8182 52.8216 33.0656 52.7253 33.339 52.6602C33.6124 52.5951 33.8911 52.5456 34.1749 52.5117C34.5343 52.4701 34.826 52.4362 35.0499 52.4102C35.2739 52.3815 35.4367 52.3359 35.5382 52.2734C35.6398 52.2109 35.6906 52.1094 35.6906 51.9687V51.9414C35.6906 51.6003 35.5942 51.3359 35.4015 51.1484C35.2114 50.9609 34.9276 50.8672 34.5499 50.8672C34.1567 50.8672 33.8468 50.9544 33.6203 51.1289C33.3963 51.3008 33.2414 51.4922 33.1554 51.7031L32.0578 51.4531C32.188 51.0885 32.3781 50.7943 32.6281 50.5703C32.8807 50.3437 33.171 50.1797 33.4992 50.0781C33.8273 49.974 34.1723 49.9219 34.5343 49.9219C34.7739 49.9219 35.0278 49.9505 35.296 50.0078C35.5669 50.0625 35.8195 50.1641 36.0539 50.3125C36.2908 50.4609 36.4848 50.6732 36.6359 50.9492C36.7869 51.2227 36.8624 51.5781 36.8624 52.0156V56H35.7218V55.1797H35.6749C35.5994 55.3307 35.4861 55.4792 35.3351 55.625C35.1841 55.7708 34.99 55.8919 34.7531 55.9883C34.5161 56.0846 34.2322 56.1328 33.9015 56.1328ZM34.1554 55.1953C34.4783 55.1953 34.7544 55.1315 34.9835 55.0039C35.2153 54.8763 35.3911 54.7096 35.5109 54.5039C35.6333 54.2956 35.6945 54.0729 35.6945 53.8359V53.0625C35.6528 53.1042 35.5721 53.1432 35.4523 53.1797C35.3351 53.2135 35.201 53.2435 35.0499 53.2695C34.8989 53.293 34.7518 53.3151 34.6085 53.3359C34.4653 53.3542 34.3455 53.3698 34.2492 53.3828C34.0226 53.4115 33.8156 53.4596 33.6281 53.5273C33.4432 53.5951 33.2947 53.6927 33.1828 53.8203C33.0734 53.9453 33.0187 54.112 33.0187 54.3203C33.0187 54.6094 33.1255 54.8281 33.339 54.9766C33.5526 55.1224 33.8247 55.1953 34.1554 55.1953ZM40.8245 56.1211C40.2437 56.1211 39.7437 55.9896 39.3245 55.7266C38.9078 55.4609 38.5875 55.0951 38.3635 54.6289C38.1396 54.1628 38.0276 53.6289 38.0276 53.0273C38.0276 52.418 38.1422 51.8802 38.3713 51.4141C38.6005 50.9453 38.9234 50.5794 39.3401 50.3164C39.7567 50.0534 40.2476 49.9219 40.8127 49.9219C41.2685 49.9219 41.6747 50.0065 42.0315 50.1758C42.3883 50.3424 42.676 50.5768 42.8948 50.8789C43.1161 51.181 43.2476 51.5339 43.2893 51.9375H42.1526C42.0901 51.6562 41.9468 51.4141 41.7229 51.2109C41.5015 51.0078 41.2047 50.9062 40.8323 50.9062C40.5067 50.9062 40.2216 50.9922 39.9768 51.1641C39.7346 51.3333 39.5458 51.5755 39.4104 51.8906C39.275 52.2031 39.2073 52.5729 39.2073 53C39.2073 53.4375 39.2737 53.8151 39.4065 54.1328C39.5393 54.4505 39.7268 54.6966 39.969 54.8711C40.2138 55.0456 40.5015 55.1328 40.8323 55.1328C41.0536 55.1328 41.2541 55.0924 41.4338 55.0117C41.6161 54.9284 41.7685 54.8099 41.8909 54.6562C42.0159 54.5026 42.1031 54.3177 42.1526 54.1016H43.2893C43.2476 54.4896 43.1213 54.8359 42.9104 55.1406C42.6995 55.4453 42.4169 55.6849 42.0627 55.8594C41.7112 56.0339 41.2984 56.1211 40.8245 56.1211ZM47.2181 50V50.9375H43.9408V50H47.2181ZM44.8197 48.5625H45.9876V54.2383C45.9876 54.4648 46.0215 54.6354 46.0892 54.75C46.1569 54.862 46.2441 54.9388 46.3509 54.9805C46.4603 55.0195 46.5788 55.0391 46.7064 55.0391C46.8001 55.0391 46.8822 55.0326 46.9525 55.0195C47.0228 55.0065 47.0775 54.9961 47.1165 54.9883L47.3275 55.9531C47.2598 55.9792 47.1634 56.0052 47.0384 56.0313C46.9134 56.0599 46.7572 56.0755 46.5697 56.0781C46.2624 56.0833 45.9759 56.0286 45.7103 55.9141C45.4447 55.7995 45.2298 55.6224 45.0658 55.3828C44.9017 55.1432 44.8197 54.8424 44.8197 54.4805V48.5625Z" fill="#EDF2EB"/>
<path d="M35.6667 12.4999C36.139 12.4999 36.5348 12.3402 36.8542 12.0208C37.1737 11.7013 37.3334 11.3055 37.3334 10.8333C37.3334 10.361 37.1737 9.9652 36.8542 9.64575C36.5348 9.32631 36.139 9.16658 35.6667 9.16658C35.1945 9.16658 34.7987 9.32631 34.4792 9.64575C34.1598 9.9652 34.0001 10.361 34.0001 10.8333C34.0001 11.3055 34.1598 11.7013 34.4792 12.0208C34.7987 12.3402 35.1945 12.4999 35.6667 12.4999ZM29.0001 12.4999C29.4723 12.4999 29.8681 12.3402 30.1876 12.0208C30.507 11.7013 30.6667 11.3055 30.6667 10.8333C30.6667 10.361 30.507 9.9652 30.1876 9.64575C29.8681 9.32631 29.4723 9.16658 29.0001 9.16658C28.5279 9.16658 28.132 9.32631 27.8126 9.64575C27.4931 9.9652 27.3334 10.361 27.3334 10.8333C27.3334 11.3055 27.4931 11.7013 27.8126 12.0208C28.132 12.3402 28.5279 12.4999 29.0001 12.4999ZM28.1667 18.1666H36.5001C36.5001 17.1944 36.0765 16.4235 35.2292 15.8541C34.382 15.2846 33.4167 14.9999 32.3334 14.9999C31.2501 14.9999 30.2848 15.2846 29.4376 15.8541C28.5904 16.4235 28.1667 17.1944 28.1667 18.1666ZM15.6667 36.6666C12.889 36.6666 10.5279 35.6944 8.58341 33.7499C6.63897 31.8055 5.66675 29.4444 5.66675 26.6666V14.9999H25.6667V26.6666C25.6667 29.4444 24.6945 31.8055 22.7501 33.7499C20.8056 35.6944 18.4445 36.6666 15.6667 36.6666ZM15.6667 33.3333C17.5001 33.3333 19.0695 32.6805 20.3751 31.3749C21.6806 30.0694 22.3334 28.4999 22.3334 26.6666V18.3333H9.00008V26.6666C9.00008 28.4999 9.65286 30.0694 10.9584 31.3749C12.264 32.6805 13.8334 33.3333 15.6667 33.3333ZM32.3334 24.9999C31.6112 24.9999 30.8959 24.9235 30.1876 24.7708C29.4792 24.618 28.8056 24.3888 28.1667 24.0833V20.1666C28.7779 20.6388 29.4376 21.0069 30.1459 21.2708C30.8542 21.5346 31.5834 21.6666 32.3334 21.6666C34.1667 21.6666 35.7362 21.0138 37.0417 19.7083C38.3473 18.4027 39.0001 16.8333 39.0001 14.9999V6.66659H25.6667V12.4999H22.3334V3.33325H42.3334V14.9999C42.3334 17.7777 41.3612 20.1388 39.4167 22.0833C37.4723 24.0277 35.1112 24.9999 32.3334 24.9999ZM12.3334 24.1666C12.8056 24.1666 13.2015 24.0069 13.5209 23.6874C13.8404 23.368 14.0001 22.9721 14.0001 22.4999C14.0001 22.0277 13.8404 21.6319 13.5209 21.3124C13.2015 20.993 12.8056 20.8333 12.3334 20.8333C11.8612 20.8333 11.4654 20.993 11.1459 21.3124C10.8265 21.6319 10.6667 22.0277 10.6667 22.4999C10.6667 22.9721 10.8265 23.368 11.1459 23.6874C11.4654 24.0069 11.8612 24.1666 12.3334 24.1666ZM19.0001 24.1666C19.4723 24.1666 19.8681 24.0069 20.1876 23.6874C20.507 23.368 20.6667 22.9721 20.6667 22.4999C20.6667 22.0277 20.507 21.6319 20.1876 21.3124C19.8681 20.993 19.4723 20.8333 19.0001 20.8333C18.5279 20.8333 18.132 20.993 17.8126 21.3124C17.4931 21.6319 17.3334 22.0277 17.3334 22.4999C17.3334 22.9721 17.4931 23.368 17.8126 23.6874C18.132 24.0069 18.5279 24.1666 19.0001 24.1666ZM15.6667 29.8333C16.7501 29.8333 17.7154 29.5485 18.5626 28.9791C19.4098 28.4096 19.8334 27.6388 19.8334 26.6666H11.5001C11.5001 27.6388 11.9237 28.4096 12.7709 28.9791C13.6181 29.5485 14.5834 29.8333 15.6667 29.8333Z" fill="#E8EAED"/>
</svg>
