<svg width="94" height="57" viewBox="0 0 94 57" fill="none" xmlns="http://www.w3.org/2000/svg">
<path d="M2.99783 48H4.46268L7.00955 54.2187H7.1033L9.65018 48H11.115V56H9.96658V50.2109H9.89237L7.53299 55.9883H6.57986L4.22049 50.207H4.14627V56H2.99783V48ZM16.4559 53.5117V50H17.6278V56H16.4794V54.9609H16.4169C16.2789 55.2813 16.0575 55.5482 15.7528 55.7617C15.4507 55.9727 15.0744 56.0781 14.6239 56.0781C14.2385 56.0781 13.8973 55.9935 13.6005 55.8242C13.3062 55.6523 13.0744 55.3984 12.9052 55.0625C12.7385 54.7266 12.6552 54.3112 12.6552 53.8164V50H13.8231V53.6758C13.8231 54.0846 13.9364 54.4102 14.163 54.6523C14.3895 54.8945 14.6838 55.0156 15.0458 55.0156C15.2645 55.0156 15.482 54.9609 15.6981 54.8516C15.9169 54.7422 16.0979 54.5768 16.2411 54.3555C16.3869 54.1341 16.4585 53.8529 16.4559 53.5117ZM23.5722 51.4648L22.5136 51.6523C22.4694 51.5169 22.3991 51.388 22.3027 51.2656C22.209 51.1432 22.0814 51.043 21.9199 50.9648C21.7584 50.8867 21.5566 50.8477 21.3144 50.8477C20.9837 50.8477 20.7077 50.9219 20.4863 51.0703C20.2649 51.2161 20.1543 51.4049 20.1543 51.6367C20.1543 51.8372 20.2285 51.9987 20.3769 52.1211C20.5254 52.2435 20.7649 52.3437 21.0957 52.4219L22.0488 52.6406C22.6009 52.7682 23.0123 52.9648 23.2832 53.2305C23.554 53.4961 23.6894 53.8411 23.6894 54.2656C23.6894 54.625 23.5853 54.9453 23.3769 55.2266C23.1712 55.5052 22.8834 55.724 22.5136 55.8828C22.1465 56.0417 21.7207 56.1211 21.2363 56.1211C20.5644 56.1211 20.0162 55.9779 19.5918 55.6914C19.1673 55.4023 18.9069 54.9922 18.8105 54.4609L19.9394 54.2891C20.0097 54.5833 20.1543 54.806 20.373 54.957C20.5918 55.1055 20.8769 55.1797 21.2285 55.1797C21.6113 55.1797 21.9173 55.1003 22.1465 54.9414C22.3756 54.7799 22.4902 54.5833 22.4902 54.3516C22.4902 54.1641 22.4199 54.0065 22.2793 53.8789C22.1412 53.7513 21.929 53.6549 21.6426 53.5898L20.6269 53.3672C20.067 53.2396 19.653 53.0365 19.3847 52.7578C19.1191 52.4792 18.9863 52.1263 18.9863 51.6992C18.9863 51.3451 19.0853 51.0352 19.2832 50.7695C19.4811 50.5039 19.7545 50.2969 20.1035 50.1484C20.4524 49.9974 20.8522 49.9219 21.3027 49.9219C21.9511 49.9219 22.4616 50.0625 22.834 50.3437C23.2064 50.6224 23.4524 50.9961 23.5722 51.4648ZM24.8526 56V50H26.0206V56H24.8526ZM25.4424 49.0742C25.2393 49.0742 25.0648 49.0065 24.919 48.8711C24.7758 48.7331 24.7042 48.569 24.7042 48.3789C24.7042 48.1862 24.7758 48.0221 24.919 47.8867C25.0648 47.7487 25.2393 47.6797 25.4424 47.6797C25.6456 47.6797 25.8188 47.7487 25.962 47.8867C26.1078 48.0221 26.1807 48.1862 26.1807 48.3789C26.1807 48.569 26.1078 48.7331 25.962 48.8711C25.8188 49.0065 25.6456 49.0742 25.4424 49.0742ZM29.9982 56.1211C29.4175 56.1211 28.9175 55.9896 28.4982 55.7266C28.0815 55.4609 27.7612 55.0951 27.5373 54.6289C27.3133 54.1628 27.2013 53.6289 27.2013 53.0273C27.2013 52.418 27.3159 51.8802 27.5451 51.4141C27.7743 50.9453 28.0972 50.5794 28.5138 50.3164C28.9305 50.0534 29.4214 49.9219 29.9865 49.9219C30.4422 49.9219 30.8485 50.0065 31.2052 50.1758C31.562 50.3424 31.8498 50.5768 32.0685 50.8789C32.2899 51.181 32.4214 51.5339 32.4631 51.9375H31.3263C31.2638 51.6562 31.1206 51.4141 30.8966 51.2109C30.6753 51.0078 30.3784 50.9062 30.006 50.9062C29.6805 50.9062 29.3953 50.9922 29.1506 51.1641C28.9084 51.3333 28.7196 51.5755 28.5841 51.8906C28.4487 52.2031 28.381 52.5729 28.381 53C28.381 53.4375 28.4474 53.8151 28.5802 54.1328C28.7131 54.4505 28.9006 54.6966 29.1427 54.8711C29.3875 55.0456 29.6753 55.1328 30.006 55.1328C30.2274 55.1328 30.4279 55.0924 30.6076 55.0117C30.7899 54.9284 30.9422 54.8099 31.0646 54.6562C31.1896 54.5026 31.2769 54.3177 31.3263 54.1016H32.4631C32.4214 54.4896 32.2951 54.8359 32.0841 55.1406C31.8732 55.4453 31.5907 55.6849 31.2365 55.8594C30.8849 56.0339 30.4722 56.1211 29.9982 56.1211ZM36.475 56V48H39.3265C39.9489 48 40.4645 48.1133 40.8734 48.3398C41.2822 48.5664 41.5882 48.8763 41.7914 49.2695C41.9945 49.6602 42.0961 50.1003 42.0961 50.5898C42.0961 51.082 41.9932 51.5247 41.7875 51.918C41.5843 52.3086 41.277 52.6185 40.8656 52.8477C40.4567 53.0742 39.9424 53.1875 39.3226 53.1875H37.3617V52.1641H39.2132C39.6065 52.1641 39.9255 52.0964 40.1703 51.9609C40.4151 51.8229 40.5947 51.6354 40.7093 51.3984C40.8239 51.1615 40.8812 50.8919 40.8812 50.5898C40.8812 50.2878 40.8239 50.0195 40.7093 49.7852C40.5947 49.5508 40.4138 49.3672 40.1664 49.2344C39.9216 49.1016 39.5987 49.0352 39.1976 49.0352H37.682V56H36.475ZM43.2963 56V50H44.4252V50.9531H44.4877C44.5971 50.6302 44.7898 50.3763 45.0659 50.1914C45.3445 50.0039 45.6596 49.9102 46.0112 49.9102C46.0841 49.9102 46.17 49.9128 46.269 49.918C46.3706 49.9232 46.45 49.9297 46.5073 49.9375V51.0547C46.4604 51.0417 46.3771 51.0273 46.2573 51.0117C46.1375 50.9935 46.0177 50.9844 45.8979 50.9844C45.6219 50.9844 45.3758 51.043 45.1596 51.1602C44.9461 51.2747 44.7768 51.4349 44.6518 51.6406C44.5268 51.8437 44.4643 52.0755 44.4643 52.3359V56H43.2963ZM49.7095 56.1211C49.147 56.1211 48.6561 55.9922 48.2369 55.7344C47.8176 55.4766 47.4921 55.1159 47.2603 54.6523C47.0285 54.1888 46.9126 53.6471 46.9126 53.0273C46.9126 52.4049 47.0285 51.8607 47.2603 51.3945C47.4921 50.9284 47.8176 50.5664 48.2369 50.3086C48.6561 50.0508 49.147 49.9219 49.7095 49.9219C50.272 49.9219 50.7629 50.0508 51.1822 50.3086C51.6014 50.5664 51.927 50.9284 52.1587 51.3945C52.3905 51.8607 52.5064 52.4049 52.5064 53.0273C52.5064 53.6471 52.3905 54.1888 52.1587 54.6523C51.927 55.1159 51.6014 55.4766 51.1822 55.7344C50.7629 55.9922 50.272 56.1211 49.7095 56.1211ZM49.7134 55.1406C50.078 55.1406 50.3801 55.0443 50.6197 54.8516C50.8593 54.6589 51.0363 54.4023 51.1509 54.082C51.2681 53.7617 51.3267 53.4089 51.3267 53.0234C51.3267 52.6406 51.2681 52.2891 51.1509 51.9687C51.0363 51.6458 50.8593 51.3867 50.6197 51.1914C50.3801 50.9961 50.078 50.8984 49.7134 50.8984C49.3462 50.8984 49.0416 50.9961 48.7994 51.1914C48.5598 51.3867 48.3814 51.6458 48.2642 51.9687C48.1496 52.2891 48.0923 52.6406 48.0923 53.0234C48.0923 53.4089 48.1496 53.7617 48.2642 54.082C48.3814 54.4023 48.5598 54.6589 48.7994 54.8516C49.0416 55.0443 49.3462 55.1406 49.7134 55.1406ZM55.9352 56.1172C55.4508 56.1172 55.0185 55.9935 54.6383 55.7461C54.2607 55.4961 53.9638 55.1406 53.7477 54.6797C53.5342 54.2161 53.4274 53.6602 53.4274 53.0117C53.4274 52.3633 53.5355 51.8086 53.7516 51.3477C53.9704 50.8867 54.2698 50.5339 54.65 50.2891C55.0303 50.0443 55.4612 49.9219 55.943 49.9219C56.3154 49.9219 56.6149 49.9844 56.8414 50.1094C57.0706 50.2318 57.2477 50.375 57.3727 50.5391C57.5003 50.7031 57.5993 50.8477 57.6696 50.9727H57.7399V48H58.9079V56H57.7672V55.0664H57.6696C57.5993 55.194 57.4977 55.3398 57.3649 55.5039C57.2347 55.668 57.055 55.8112 56.8258 55.9336C56.5967 56.056 56.2998 56.1172 55.9352 56.1172ZM56.193 55.1211C56.5289 55.1211 56.8128 55.0326 57.0446 54.8555C57.2789 54.6758 57.456 54.4271 57.5758 54.1094C57.6982 53.7917 57.7594 53.4219 57.7594 53C57.7594 52.5833 57.6995 52.2187 57.5797 51.9062C57.4599 51.5937 57.2842 51.3503 57.0524 51.1758C56.8206 51.0013 56.5342 50.9141 56.193 50.9141C55.8414 50.9141 55.5485 51.0052 55.3141 51.1875C55.0797 51.3698 54.9026 51.6185 54.7829 51.9336C54.6657 52.2487 54.6071 52.6042 54.6071 53C54.6071 53.401 54.667 53.7617 54.7868 54.082C54.9066 54.4023 55.0836 54.6562 55.318 54.8437C55.555 55.0286 55.8467 55.1211 56.193 55.1211ZM64.2546 53.5117V50H65.4265V56H64.2781V54.9609H64.2156C64.0775 55.2813 63.8562 55.5482 63.5515 55.7617C63.2494 55.9727 62.8731 56.0781 62.4226 56.0781C62.0372 56.0781 61.696 55.9935 61.3992 55.8242C61.1049 55.6523 60.8731 55.3984 60.7038 55.0625C60.5372 54.7266 60.4538 54.3112 60.4538 53.8164V50H61.6218V53.6758C61.6218 54.0846 61.7351 54.4102 61.9617 54.6523C62.1882 54.8945 62.4825 55.0156 62.8445 55.0156C63.0632 55.0156 63.2807 54.9609 63.4968 54.8516C63.7156 54.7422 63.8966 54.5768 64.0398 54.3555C64.1856 54.1341 64.2572 53.8529 64.2546 53.5117ZM69.4022 56.1211C68.8215 56.1211 68.3215 55.9896 67.9022 55.7266C67.4855 55.4609 67.1652 55.0951 66.9412 54.6289C66.7173 54.1628 66.6053 53.6289 66.6053 53.0273C66.6053 52.418 66.7199 51.8802 66.9491 51.4141C67.1782 50.9453 67.5011 50.5794 67.9178 50.3164C68.3345 50.0534 68.8254 49.9219 69.3905 49.9219C69.8462 49.9219 70.2524 50.0065 70.6092 50.1758C70.966 50.3424 71.2537 50.5768 71.4725 50.8789C71.6939 51.181 71.8254 51.5339 71.867 51.9375H70.7303C70.6678 51.6562 70.5246 51.4141 70.3006 51.2109C70.0793 51.0078 69.7824 50.9062 69.41 50.9062C69.0845 50.9062 68.7993 50.9922 68.5545 51.1641C68.3123 51.3333 68.1235 51.5755 67.9881 51.8906C67.8527 52.2031 67.785 52.5729 67.785 53C67.785 53.4375 67.8514 53.8151 67.9842 54.1328C68.117 54.4505 68.3045 54.6966 68.5467 54.8711C68.7915 55.0456 69.0793 55.1328 69.41 55.1328C69.6314 55.1328 69.8319 55.0924 70.0116 55.0117C70.1939 54.9284 70.3462 54.8099 70.4686 54.6562C70.5936 54.5026 70.6808 54.3177 70.7303 54.1016H71.867C71.8254 54.4896 71.6991 54.8359 71.4881 55.1406C71.2772 55.4453 70.9946 55.6849 70.6405 55.8594C70.2889 56.0339 69.8761 56.1211 69.4022 56.1211ZM75.7958 50V50.9375H72.5185V50H75.7958ZM73.3974 48.5625H74.5654V54.2383C74.5654 54.4648 74.5992 54.6354 74.6669 54.75C74.7346 54.862 74.8219 54.9388 74.9286 54.9805C75.038 55.0195 75.1565 55.0391 75.2841 55.0391C75.3779 55.0391 75.4599 55.0326 75.5302 55.0195C75.6005 55.0065 75.6552 54.9961 75.6943 54.9883L75.9052 55.9531C75.8375 55.9792 75.7411 56.0052 75.6161 56.0313C75.4911 56.0599 75.3349 56.0755 75.1474 56.0781C74.8401 56.0833 74.5536 56.0286 74.288 55.9141C74.0224 55.7995 73.8075 55.6224 73.6435 55.3828C73.4794 55.1432 73.3974 54.8424 73.3974 54.4805V48.5625ZM76.9668 56V50H78.1348V56H76.9668ZM77.5567 49.0742C77.3535 49.0742 77.1791 49.0065 77.0332 48.8711C76.89 48.7331 76.8184 48.569 76.8184 48.3789C76.8184 48.1862 76.89 48.0221 77.0332 47.8867C77.1791 47.7487 77.3535 47.6797 77.5567 47.6797C77.7598 47.6797 77.933 47.7487 78.0762 47.8867C78.222 48.0221 78.295 48.1862 78.295 48.3789C78.295 48.569 78.222 48.7331 78.0762 48.8711C77.933 49.0065 77.7598 49.0742 77.5567 49.0742ZM82.1124 56.1211C81.5499 56.1211 81.059 55.9922 80.6398 55.7344C80.2205 55.4766 79.895 55.1159 79.6632 54.6523C79.4314 54.1888 79.3156 53.6471 79.3156 53.0273C79.3156 52.4049 79.4314 51.8607 79.6632 51.3945C79.895 50.9284 80.2205 50.5664 80.6398 50.3086C81.059 50.0508 81.5499 49.9219 82.1124 49.9219C82.6749 49.9219 83.1658 50.0508 83.5851 50.3086C84.0044 50.5664 84.3299 50.9284 84.5616 51.3945C84.7934 51.8607 84.9093 52.4049 84.9093 53.0273C84.9093 53.6471 84.7934 54.1888 84.5616 54.6523C84.3299 55.1159 84.0044 55.4766 83.5851 55.7344C83.1658 55.9922 82.6749 56.1211 82.1124 56.1211ZM82.1163 55.1406C82.4809 55.1406 82.783 55.0443 83.0226 54.8516C83.2622 54.6589 83.4392 54.4023 83.5538 54.082C83.671 53.7617 83.7296 53.4089 83.7296 53.0234C83.7296 52.6406 83.671 52.2891 83.5538 51.9687C83.4392 51.6458 83.2622 51.3867 83.0226 51.1914C82.783 50.9961 82.4809 50.8984 82.1163 50.8984C81.7491 50.8984 81.4445 50.9961 81.2023 51.1914C80.9627 51.3867 80.7843 51.6458 80.6671 51.9687C80.5525 52.2891 80.4952 52.6406 80.4952 53.0234C80.4952 53.4089 80.5525 53.7617 80.6671 54.082C80.7843 54.4023 80.9627 54.6589 81.2023 54.8516C81.4445 55.0443 81.7491 55.1406 82.1163 55.1406ZM87.26 52.4375V56H86.092V50H87.2131V50.9766H87.2873C87.4253 50.6589 87.6415 50.4036 87.9358 50.2109C88.2326 50.0182 88.6063 49.9219 89.0569 49.9219C89.4657 49.9219 89.8238 50.0078 90.1311 50.1797C90.4384 50.349 90.6766 50.6016 90.8459 50.9375C91.0152 51.2734 91.0998 51.6888 91.0998 52.1836V56H89.9319V52.3242C89.9319 51.8893 89.8186 51.5495 89.592 51.3047C89.3654 51.0573 89.0543 50.9336 88.6584 50.9336C88.3876 50.9336 88.1467 50.9922 87.9358 51.1094C87.7274 51.2266 87.5621 51.3984 87.4397 51.625C87.3199 51.849 87.26 52.1198 87.26 52.4375Z" fill="#EDF2EB"/>
<path d="M57.8333 16.6667H63.6667V20.0001H60.3333V29.1667C60.3333 30.3334 59.9306 31.3195 59.125 32.1251C58.3194 32.9306 57.3333 33.3334 56.1667 33.3334C55 33.3334 54.0139 32.9306 53.2083 32.1251C52.4028 31.3195 52 30.3334 52 29.1667C52 28.0001 52.4028 27.014 53.2083 26.2084C54.0139 25.4029 55 25.0001 56.1667 25.0001C56.3889 25.0001 56.6389 25.0209 56.9167 25.0626C57.1944 25.1042 57.5 25.1945 57.8333 25.3334V16.6667ZM32 33.3334V28.6667C32 27.6945 32.2431 26.8195 32.7292 26.0417C33.2153 25.264 33.8611 24.6667 34.6667 24.2501C36.3889 23.389 38.1389 22.7431 39.9167 22.3126C41.6944 21.882 43.5 21.6667 45.3333 21.6667C46.5 21.6667 47.6597 21.757 48.8125 21.9376C49.9653 22.1181 51.125 22.389 52.2917 22.7501C51.7361 23.0834 51.2361 23.4862 50.7917 23.9584C50.3472 24.4306 49.9583 24.9445 49.625 25.5001C48.9028 25.3334 48.1875 25.2084 47.4792 25.1251C46.7708 25.0417 46.0556 25.0001 45.3333 25.0001C43.75 25.0001 42.1944 25.1945 40.6667 25.5834C39.1389 25.9723 37.6389 26.5279 36.1667 27.2501C35.9167 27.389 35.7153 27.5834 35.5625 27.8334C35.4097 28.0834 35.3333 28.3612 35.3333 28.6667V30.0001H48.7083C48.7639 30.5556 48.8958 31.1112 49.1042 31.6667C49.3125 32.2223 49.5972 32.7779 49.9583 33.3334H32ZM45.3333 20.0001C43.5 20.0001 41.9306 19.3473 40.625 18.0417C39.3194 16.7362 38.6667 15.1667 38.6667 13.3334C38.6667 11.5001 39.3194 9.93064 40.625 8.62508C41.9306 7.31953 43.5 6.66675 45.3333 6.66675C47.1667 6.66675 48.7361 7.31953 50.0417 8.62508C51.3472 9.93064 52 11.5001 52 13.3334C52 15.1667 51.3472 16.7362 50.0417 18.0417C48.7361 19.3473 47.1667 20.0001 45.3333 20.0001ZM45.3333 16.6667C46.25 16.6667 47.0347 16.3404 47.6875 15.6876C48.3403 15.0348 48.6667 14.2501 48.6667 13.3334C48.6667 12.4167 48.3403 11.632 47.6875 10.9792C47.0347 10.3265 46.25 10.0001 45.3333 10.0001C44.4167 10.0001 43.6319 10.3265 42.9792 10.9792C42.3264 11.632 42 12.4167 42 13.3334C42 14.2501 42.3264 15.0348 42.9792 15.6876C43.6319 16.3404 44.4167 16.6667 45.3333 16.6667Z" fill="#E8EAED"/>
</svg>
