<svg width="72" height="57" viewBox="0 0 72 57" fill="none" xmlns="http://www.w3.org/2000/svg">
<path d="M3.23342 48L5.45998 54.5156H5.54982L7.77639 48H9.08107L6.20217 56H4.80764L1.92873 48H3.23342ZM10.0216 56V50H11.1896V56H10.0216ZM10.6114 49.0742C10.4083 49.0742 10.2338 49.0065 10.088 48.8711C9.94477 48.7331 9.87316 48.569 9.87316 48.3789C9.87316 48.1862 9.94477 48.0221 10.088 47.8867C10.2338 47.7487 10.4083 47.6797 10.6114 47.6797C10.8146 47.6797 10.9877 47.7487 11.131 47.8867C11.2768 48.0221 11.3497 48.1862 11.3497 48.3789C11.3497 48.569 11.2768 48.7331 11.131 48.8711C10.9877 49.0065 10.8146 49.0742 10.6114 49.0742ZM14.8859 56.1172C14.4016 56.1172 13.9693 55.9935 13.5891 55.7461C13.2115 55.4961 12.9146 55.1406 12.6984 54.6797C12.4849 54.2161 12.3781 53.6602 12.3781 53.0117C12.3781 52.3633 12.4862 51.8086 12.7024 51.3477C12.9211 50.8867 13.2206 50.5339 13.6008 50.2891C13.981 50.0443 14.412 49.9219 14.8938 49.9219C15.2662 49.9219 15.5656 49.9844 15.7922 50.1094C16.0214 50.2318 16.1984 50.375 16.3234 50.5391C16.4511 50.7031 16.55 50.8477 16.6203 50.9727H16.6906V48H17.8586V56H16.718V55.0664H16.6203C16.55 55.194 16.4484 55.3398 16.3156 55.5039C16.1854 55.668 16.0057 55.8112 15.7766 55.9336C15.5474 56.056 15.2505 56.1172 14.8859 56.1172ZM15.1438 55.1211C15.4797 55.1211 15.7636 55.0326 15.9953 54.8555C16.2297 54.6758 16.4068 54.4271 16.5266 54.1094C16.649 53.7917 16.7102 53.4219 16.7102 53C16.7102 52.5833 16.6503 52.2187 16.5305 51.9062C16.4107 51.5937 16.2349 51.3503 16.0031 51.1758C15.7714 51.0013 15.4849 50.9141 15.1438 50.9141C14.7922 50.9141 14.4992 51.0052 14.2649 51.1875C14.0305 51.3698 13.8534 51.6185 13.7336 51.9336C13.6164 52.2487 13.5578 52.6042 13.5578 53C13.5578 53.401 13.6177 53.7617 13.7375 54.082C13.8573 54.4023 14.0344 54.6562 14.2688 54.8437C14.5057 55.0286 14.7974 55.1211 15.1438 55.1211ZM21.9905 56.1211C21.3994 56.1211 20.8903 55.9948 20.4632 55.7422C20.0387 55.487 19.7106 55.1289 19.4788 54.668C19.2496 54.2044 19.1351 53.6615 19.1351 53.0391C19.1351 52.4245 19.2496 51.8828 19.4788 51.4141C19.7106 50.9453 20.0335 50.5794 20.4476 50.3164C20.8642 50.0534 21.3512 49.9219 21.9085 49.9219C22.247 49.9219 22.5752 49.9779 22.8929 50.0898C23.2106 50.2018 23.4957 50.3776 23.7483 50.6172C24.001 50.8568 24.2002 51.168 24.346 51.5508C24.4918 51.931 24.5648 52.3932 24.5648 52.9375V53.3516H19.7952V52.4766H23.4202C23.4202 52.1693 23.3577 51.8971 23.2327 51.6602C23.1077 51.4206 22.9319 51.2318 22.7054 51.0937C22.4814 50.9557 22.2184 50.8867 21.9163 50.8867C21.5882 50.8867 21.3017 50.9674 21.0569 51.1289C20.8148 51.2878 20.6273 51.4961 20.4944 51.7539C20.3642 52.0091 20.2991 52.2865 20.2991 52.5859V53.2695C20.2991 53.6706 20.3694 54.0117 20.5101 54.293C20.6533 54.5742 20.8525 54.7891 21.1077 54.9375C21.3629 55.0833 21.6611 55.1562 22.0023 55.1562C22.2236 55.1562 22.4254 55.125 22.6077 55.0625C22.79 54.9974 22.9476 54.901 23.0804 54.7734C23.2132 54.6458 23.3148 54.4883 23.3851 54.3008L24.4905 54.5C24.402 54.8255 24.2431 55.1107 24.014 55.3555C23.7874 55.5977 23.5023 55.7865 23.1585 55.9219C22.8174 56.0547 22.428 56.1211 21.9905 56.1211ZM28.267 56.1211C27.7045 56.1211 27.2136 55.9922 26.7943 55.7344C26.3751 55.4766 26.0495 55.1159 25.8178 54.6523C25.586 54.1888 25.4701 53.6471 25.4701 53.0273C25.4701 52.4049 25.586 51.8607 25.8178 51.3945C26.0495 50.9284 26.3751 50.5664 26.7943 50.3086C27.2136 50.0508 27.7045 49.9219 28.267 49.9219C28.8295 49.9219 29.3204 50.0508 29.7397 50.3086C30.1589 50.5664 30.4844 50.9284 30.7162 51.3945C30.948 51.8607 31.0639 52.4049 31.0639 53.0273C31.0639 53.6471 30.948 54.1888 30.7162 54.6523C30.4844 55.1159 30.1589 55.4766 29.7397 55.7344C29.3204 55.9922 28.8295 56.1211 28.267 56.1211ZM28.2709 55.1406C28.6355 55.1406 28.9376 55.0443 29.1772 54.8516C29.4167 54.6589 29.5938 54.4023 29.7084 54.082C29.8256 53.7617 29.8842 53.4089 29.8842 53.0234C29.8842 52.6406 29.8256 52.2891 29.7084 51.9687C29.5938 51.6458 29.4167 51.3867 29.1772 51.1914C28.9376 50.9961 28.6355 50.8984 28.2709 50.8984C27.9037 50.8984 27.599 50.9961 27.3568 51.1914C27.1173 51.3867 26.9389 51.6458 26.8217 51.9687C26.7071 52.2891 26.6498 52.6406 26.6498 53.0234C26.6498 53.4089 26.7071 53.7617 26.8217 54.082C26.9389 54.4023 27.1173 54.6589 27.3568 54.8516C27.599 55.0443 27.9037 55.1406 28.2709 55.1406ZM40.5445 50.5273C40.469 50.2904 40.3674 50.0781 40.2398 49.8906C40.1148 49.7005 39.9651 49.5391 39.7906 49.4063C39.6161 49.2708 39.4169 49.168 39.193 49.0977C38.9716 49.0273 38.7281 48.9922 38.4625 48.9922C38.012 48.9922 37.6057 49.1081 37.2437 49.3398C36.8818 49.5716 36.5953 49.9115 36.3844 50.3594C36.176 50.8047 36.0719 51.3503 36.0719 51.9961C36.0719 52.6445 36.1773 53.1927 36.3883 53.6406C36.5992 54.0885 36.8883 54.4284 37.2555 54.6602C37.6227 54.8919 38.0406 55.0078 38.5094 55.0078C38.9443 55.0078 39.3232 54.9193 39.6461 54.7422C39.9716 54.5651 40.2229 54.3151 40.4 53.9922C40.5797 53.6667 40.6695 53.2839 40.6695 52.8438L40.982 52.9023H38.693V51.9062H41.8375V52.8164C41.8375 53.4883 41.6943 54.0716 41.4078 54.5664C41.124 55.0586 40.7307 55.4388 40.2281 55.707C39.7281 55.9753 39.1552 56.1094 38.5094 56.1094C37.7854 56.1094 37.15 55.9427 36.6031 55.6094C36.0588 55.276 35.6344 54.8034 35.3297 54.1914C35.025 53.5768 34.8727 52.8477 34.8727 52.0039C34.8727 51.3659 34.9612 50.793 35.1383 50.2852C35.3154 49.7773 35.5641 49.3464 35.8844 48.9922C36.2073 48.6354 36.5862 48.3633 37.0211 48.1758C37.4586 47.9857 37.9365 47.8906 38.4547 47.8906C38.887 47.8906 39.2893 47.9544 39.6617 48.082C40.0367 48.2096 40.37 48.3906 40.6617 48.625C40.956 48.8594 41.1995 49.138 41.3922 49.4609C41.5849 49.7812 41.7151 50.1367 41.7828 50.5273H40.5445ZM44.9011 56.1328C44.5209 56.1328 44.1771 56.0625 43.8698 55.9219C43.5625 55.7786 43.319 55.5716 43.1393 55.3008C42.9623 55.0299 42.8737 54.6979 42.8737 54.3047C42.8737 53.9661 42.9388 53.6875 43.069 53.4687C43.1992 53.25 43.375 53.0768 43.5964 52.9492C43.8177 52.8216 44.0651 52.7253 44.3386 52.6602C44.612 52.5951 44.8906 52.5456 45.1745 52.5117C45.5339 52.4701 45.8255 52.4362 46.0495 52.4102C46.2735 52.3815 46.4362 52.3359 46.5378 52.2734C46.6393 52.2109 46.6901 52.1094 46.6901 51.9687V51.9414C46.6901 51.6003 46.5938 51.3359 46.4011 51.1484C46.211 50.9609 45.9271 50.8672 45.5495 50.8672C45.1563 50.8672 44.8464 50.9544 44.6198 51.1289C44.3959 51.3008 44.2409 51.4922 44.155 51.7031L43.0573 51.4531C43.1875 51.0885 43.3776 50.7943 43.6276 50.5703C43.8802 50.3437 44.1706 50.1797 44.4987 50.0781C44.8268 49.974 45.1719 49.9219 45.5339 49.9219C45.7735 49.9219 46.0274 49.9505 46.2956 50.0078C46.5664 50.0625 46.819 50.1641 47.0534 50.3125C47.2904 50.4609 47.4844 50.6732 47.6354 50.9492C47.7865 51.2227 47.862 51.5781 47.862 52.0156V56H46.7214V55.1797H46.6745C46.599 55.3307 46.4857 55.4792 46.3347 55.625C46.1836 55.7708 45.9896 55.8919 45.7526 55.9883C45.5156 56.0846 45.2318 56.1328 44.9011 56.1328ZM45.155 55.1953C45.4779 55.1953 45.7539 55.1315 45.9831 55.0039C46.2149 54.8763 46.3906 54.7096 46.5104 54.5039C46.6328 54.2956 46.694 54.0729 46.694 53.8359V53.0625C46.6524 53.1042 46.5716 53.1432 46.4518 53.1797C46.3347 53.2135 46.2005 53.2435 46.0495 53.2695C45.8985 53.293 45.7513 53.3151 45.6081 53.3359C45.4649 53.3542 45.3451 53.3698 45.2487 53.3828C45.0222 53.4115 44.8151 53.4596 44.6276 53.5273C44.4427 53.5951 44.2943 53.6927 44.1823 53.8203C44.0729 53.9453 44.0183 54.112 44.0183 54.3203C44.0183 54.6094 44.125 54.8281 44.3386 54.9766C44.5521 55.1224 44.8242 55.1953 45.155 55.1953ZM49.2967 56V50H50.4178V50.9766H50.492C50.617 50.6458 50.8214 50.388 51.1053 50.2031C51.3891 50.0156 51.729 49.9219 52.1248 49.9219C52.5258 49.9219 52.8618 50.0156 53.1326 50.2031C53.406 50.3906 53.6079 50.6484 53.7381 50.9766H53.8006C53.9438 50.6562 54.1717 50.401 54.4842 50.2109C54.7967 50.0182 55.1691 49.9219 55.6014 49.9219C56.1456 49.9219 56.5896 50.0924 56.9334 50.4336C57.2797 50.7747 57.4529 51.2891 57.4529 51.9766V56H56.285V52.0859C56.285 51.6797 56.1743 51.3854 55.9529 51.2031C55.7316 51.0208 55.4672 50.9297 55.16 50.9297C54.7797 50.9297 54.4842 51.0469 54.2732 51.2812C54.0623 51.513 53.9568 51.8112 53.9568 52.1758V56H52.7928V52.0117C52.7928 51.6862 52.6912 51.4245 52.4881 51.2266C52.285 51.0286 52.0206 50.9297 51.6951 50.9297C51.4738 50.9297 51.2693 50.9883 51.0818 51.1055C50.8969 51.2201 50.7472 51.3802 50.6326 51.5859C50.5206 51.7917 50.4646 52.0299 50.4646 52.3008V56H49.2967ZM61.4833 56.1211C60.8921 56.1211 60.383 55.9948 59.9559 55.7422C59.5315 55.487 59.2033 55.1289 58.9716 54.668C58.7424 54.2044 58.6278 53.6615 58.6278 53.0391C58.6278 52.4245 58.7424 51.8828 58.9716 51.4141C59.2033 50.9453 59.5263 50.5794 59.9403 50.3164C60.357 50.0534 60.844 49.9219 61.4013 49.9219C61.7398 49.9219 62.0679 49.9779 62.3856 50.0898C62.7033 50.2018 62.9885 50.3776 63.2411 50.6172C63.4937 50.8568 63.6929 51.168 63.8388 51.5508C63.9846 51.931 64.0575 52.3932 64.0575 52.9375V53.3516H59.288V52.4766H62.913C62.913 52.1693 62.8505 51.8971 62.7255 51.6602C62.6005 51.4206 62.4247 51.2318 62.1981 51.0937C61.9742 50.9557 61.7111 50.8867 61.4091 50.8867C61.0809 50.8867 60.7945 50.9674 60.5497 51.1289C60.3075 51.2878 60.12 51.4961 59.9872 51.7539C59.857 52.0091 59.7919 52.2865 59.7919 52.5859V53.2695C59.7919 53.6706 59.8622 54.0117 60.0028 54.293C60.146 54.5742 60.3453 54.7891 60.6005 54.9375C60.8557 55.0833 61.1539 55.1562 61.495 55.1562C61.7164 55.1562 61.9182 55.125 62.1005 55.0625C62.2828 54.9974 62.4403 54.901 62.5731 54.7734C62.7059 54.6458 62.8075 54.4883 62.8778 54.3008L63.9833 54.5C63.8947 54.8255 63.7359 55.1107 63.5067 55.3555C63.2802 55.5977 62.995 55.7865 62.6513 55.9219C62.3101 56.0547 61.9208 56.1211 61.4833 56.1211ZM69.7285 51.4648L68.6699 51.6523C68.6256 51.5169 68.5553 51.388 68.459 51.2656C68.3652 51.1432 68.2376 51.043 68.0762 50.9648C67.9147 50.8867 67.7129 50.8477 67.4707 50.8477C67.14 50.8477 66.8639 50.9219 66.6426 51.0703C66.4212 51.2161 66.3105 51.4049 66.3105 51.6367C66.3105 51.8372 66.3848 51.9987 66.5332 52.1211C66.6816 52.2435 66.9212 52.3437 67.2519 52.4219L68.2051 52.6406C68.7571 52.7682 69.1686 52.9648 69.4394 53.2305C69.7103 53.4961 69.8457 53.8411 69.8457 54.2656C69.8457 54.625 69.7415 54.9453 69.5332 55.2266C69.3275 55.5052 69.0397 55.724 68.6699 55.8828C68.3027 56.0417 67.8769 56.1211 67.3926 56.1211C66.7207 56.1211 66.1725 55.9779 65.748 55.6914C65.3236 55.4023 65.0631 54.9922 64.9668 54.4609L66.0957 54.2891C66.166 54.5833 66.3105 54.806 66.5293 54.957C66.748 55.1055 67.0332 55.1797 67.3848 55.1797C67.7676 55.1797 68.0736 55.1003 68.3027 54.9414C68.5319 54.7799 68.6465 54.5833 68.6465 54.3516C68.6465 54.1641 68.5762 54.0065 68.4355 53.8789C68.2975 53.7513 68.0853 53.6549 67.7988 53.5898L66.7832 53.3672C66.2233 53.2396 65.8092 53.0365 65.541 52.7578C65.2754 52.4792 65.1426 52.1263 65.1426 51.6992C65.1426 51.3451 65.2415 51.0352 65.4394 50.7695C65.6374 50.5039 65.9108 50.2969 66.2598 50.1484C66.6087 49.9974 67.0084 49.9219 67.459 49.9219C68.1074 49.9219 68.6178 50.0625 68.9902 50.3437C69.3626 50.6224 69.6087 50.9961 69.7285 51.4648Z" fill="#EDF2EB"/>
<path d="M23.5834 31.6666C22.1667 31.6666 21.0695 31.1735 20.2917 30.1874C19.514 29.2013 19.2223 27.9999 19.4167 26.5833L21.1667 14.0833C21.4167 12.4166 22.1598 11.0416 23.3959 9.95825C24.632 8.87492 26.0834 8.33325 27.7501 8.33325H44.2501C45.9167 8.33325 47.3681 8.87492 48.6042 9.95825C49.8403 11.0416 50.5834 12.4166 50.8334 14.0833L52.5834 26.5833C52.7778 27.9999 52.4862 29.2013 51.7084 30.1874C50.9306 31.1735 49.8334 31.6666 48.4167 31.6666C47.8334 31.6666 47.2917 31.5624 46.7917 31.3541C46.2917 31.1458 45.8334 30.8333 45.4167 30.4166L41.6667 26.6666H30.3334L26.5834 30.4166C26.1667 30.8333 25.7084 31.1458 25.2084 31.3541C24.7084 31.5624 24.1667 31.6666 23.5834 31.6666ZM24.2501 28.0833L29.0001 23.3333H43.0001L47.7501 28.0833C47.8056 28.1388 48.0278 28.2221 48.4167 28.3333C48.7223 28.3333 48.9653 28.243 49.1459 28.0624C49.3265 27.8819 49.389 27.6388 49.3334 27.3333L47.5001 14.4999C47.389 13.6944 47.0278 13.0208 46.4167 12.4791C45.8056 11.9374 45.0834 11.6666 44.2501 11.6666H27.7501C26.9167 11.6666 26.1945 11.9374 25.5834 12.4791C24.9723 13.0208 24.6112 13.6944 24.5001 14.4999L22.6667 27.3333C22.6112 27.6388 22.6737 27.8819 22.8542 28.0624C23.0348 28.243 23.2778 28.3333 23.5834 28.3333C23.639 28.3333 23.8612 28.2499 24.2501 28.0833ZM44.3334 21.6666C44.8056 21.6666 45.2015 21.5069 45.5209 21.1874C45.8403 20.868 46.0001 20.4721 46.0001 19.9999C46.0001 19.5277 45.8403 19.1319 45.5209 18.8124C45.2015 18.493 44.8056 18.3333 44.3334 18.3333C43.8612 18.3333 43.4653 18.493 43.1459 18.8124C42.8265 19.1319 42.6667 19.5277 42.6667 19.9999C42.6667 20.4721 42.8265 20.868 43.1459 21.1874C43.4653 21.5069 43.8612 21.6666 44.3334 21.6666ZM41.0001 16.6666C41.4723 16.6666 41.8681 16.5069 42.1876 16.1874C42.507 15.868 42.6667 15.4721 42.6667 14.9999C42.6667 14.5277 42.507 14.1319 42.1876 13.8124C41.8681 13.493 41.4723 13.3333 41.0001 13.3333C40.5278 13.3333 40.132 13.493 39.8126 13.8124C39.4931 14.1319 39.3334 14.5277 39.3334 14.9999C39.3334 15.4721 39.4931 15.868 39.8126 16.1874C40.132 16.5069 40.5278 16.6666 41.0001 16.6666ZM28.9167 21.6666H31.4167V18.7499H34.3334V16.2499H31.4167V13.3333H28.9167V16.2499H26.0001V18.7499H28.9167V21.6666Z" fill="#E8EAED"/>
</svg>
